<mxfile host="app.diagrams.net" modified="2024-04-22T12:10:18.723Z" agent="Mozilla/5.0 (Macintosh; Intel Mac OS X 10_15_7) AppleWebKit/537.36 (KHTML, like Gecko) Chrome/123.0.0.0 Safari/537.36" etag="9w5Gd8CoBXBckUAFQlGP" version="24.2.5" type="github">
  <diagram name="第 1 页" id="yuKHmL6jOAnfiQFaj1Eb">
    <mxGraphModel dx="11217" dy="2516" grid="1" gridSize="10" guides="1" tooltips="1" connect="1" arrows="1" fold="1" page="1" pageScale="1" pageWidth="827" pageHeight="1169" math="0" shadow="0">
      <root>
        <mxCell id="0" />
        <mxCell id="1" parent="0" />
        <mxCell id="qw3Gt2nW3UvpiBgJ2Ltj-16" style="edgeStyle=orthogonalEdgeStyle;rounded=0;orthogonalLoop=1;jettySize=auto;html=1;entryX=0.5;entryY=0;entryDx=0;entryDy=0;" edge="1" parent="1" source="qw3Gt2nW3UvpiBgJ2Ltj-1" target="qw3Gt2nW3UvpiBgJ2Ltj-9">
          <mxGeometry relative="1" as="geometry" />
        </mxCell>
        <mxCell id="qw3Gt2nW3UvpiBgJ2Ltj-17" value="id" style="edgeLabel;html=1;align=center;verticalAlign=middle;resizable=0;points=[];" vertex="1" connectable="0" parent="qw3Gt2nW3UvpiBgJ2Ltj-16">
          <mxGeometry x="0.7249" y="-1" relative="1" as="geometry">
            <mxPoint y="1" as="offset" />
          </mxGeometry>
        </mxCell>
        <mxCell id="qw3Gt2nW3UvpiBgJ2Ltj-18" value="&lt;div style=&quot;background-color:#2b2b2b;color:#a9b7c6&quot;&gt;&lt;pre style=&quot;font-family:&#39;JetBrains Mono&#39;,monospace;font-size:9.8pt;&quot;&gt;&lt;br&gt;&lt;/pre&gt;&lt;/div&gt;" style="edgeLabel;html=1;align=center;verticalAlign=middle;resizable=0;points=[];" vertex="1" connectable="0" parent="qw3Gt2nW3UvpiBgJ2Ltj-16">
          <mxGeometry x="-0.7977" y="2" relative="1" as="geometry">
            <mxPoint as="offset" />
          </mxGeometry>
        </mxCell>
        <mxCell id="qw3Gt2nW3UvpiBgJ2Ltj-19" value="associate_id" style="edgeLabel;html=1;align=center;verticalAlign=middle;resizable=0;points=[];" vertex="1" connectable="0" parent="qw3Gt2nW3UvpiBgJ2Ltj-16">
          <mxGeometry x="-0.7455" y="-2" relative="1" as="geometry">
            <mxPoint as="offset" />
          </mxGeometry>
        </mxCell>
        <mxCell id="qw3Gt2nW3UvpiBgJ2Ltj-114" style="edgeStyle=orthogonalEdgeStyle;rounded=0;orthogonalLoop=1;jettySize=auto;html=1;entryX=0;entryY=0.5;entryDx=0;entryDy=0;" edge="1" parent="1" source="qw3Gt2nW3UvpiBgJ2Ltj-5" target="qw3Gt2nW3UvpiBgJ2Ltj-2">
          <mxGeometry relative="1" as="geometry">
            <Array as="points">
              <mxPoint x="-6500" y="660" />
              <mxPoint x="-6500" y="425" />
            </Array>
          </mxGeometry>
        </mxCell>
        <mxCell id="qw3Gt2nW3UvpiBgJ2Ltj-115" value="parend_id / branch_id" style="edgeLabel;html=1;align=center;verticalAlign=middle;resizable=0;points=[];" vertex="1" connectable="0" parent="qw3Gt2nW3UvpiBgJ2Ltj-114">
          <mxGeometry x="0.033" y="-2" relative="1" as="geometry">
            <mxPoint as="offset" />
          </mxGeometry>
        </mxCell>
        <mxCell id="qw3Gt2nW3UvpiBgJ2Ltj-102" style="edgeStyle=orthogonalEdgeStyle;rounded=0;orthogonalLoop=1;jettySize=auto;html=1;entryX=0.25;entryY=0;entryDx=0;entryDy=0;" edge="1" parent="1" source="qw3Gt2nW3UvpiBgJ2Ltj-1" target="qw3Gt2nW3UvpiBgJ2Ltj-87">
          <mxGeometry relative="1" as="geometry">
            <Array as="points">
              <mxPoint x="-5682" y="640" />
            </Array>
          </mxGeometry>
        </mxCell>
        <mxCell id="qw3Gt2nW3UvpiBgJ2Ltj-103" value="&lt;div style=&quot;background-color: rgb(43, 43, 43);&quot;&gt;&lt;pre style=&quot;&quot;&gt;&lt;font face=&quot;JetBrains Mono, monospace&quot; color=&quot;#a9b7c6&quot;&gt;&lt;span style=&quot;font-size: 9.8pt;&quot;&gt;&lt;br&gt;&lt;/span&gt;&lt;/font&gt;&lt;/pre&gt;&lt;/div&gt;" style="edgeLabel;html=1;align=center;verticalAlign=middle;resizable=0;points=[];" vertex="1" connectable="0" parent="qw3Gt2nW3UvpiBgJ2Ltj-102">
          <mxGeometry x="0.8921" y="1" relative="1" as="geometry">
            <mxPoint as="offset" />
          </mxGeometry>
        </mxCell>
        <mxCell id="qw3Gt2nW3UvpiBgJ2Ltj-104" value="couponset_activity_id/activity_id" style="edgeLabel;html=1;align=center;verticalAlign=middle;resizable=0;points=[];" vertex="1" connectable="0" parent="qw3Gt2nW3UvpiBgJ2Ltj-102">
          <mxGeometry x="0.8584" relative="1" as="geometry">
            <mxPoint as="offset" />
          </mxGeometry>
        </mxCell>
        <mxCell id="qw3Gt2nW3UvpiBgJ2Ltj-105" value="id" style="edgeLabel;html=1;align=center;verticalAlign=middle;resizable=0;points=[];" vertex="1" connectable="0" parent="qw3Gt2nW3UvpiBgJ2Ltj-102">
          <mxGeometry x="-0.8449" y="1" relative="1" as="geometry">
            <mxPoint as="offset" />
          </mxGeometry>
        </mxCell>
        <mxCell id="qw3Gt2nW3UvpiBgJ2Ltj-1" value="&lt;span style=&quot;background-color: rgb(213, 232, 212);&quot;&gt;promotion_activity（促销活动）&lt;/span&gt;" style="shape=table;startSize=30;container=1;collapsible=1;childLayout=tableLayout;fixedRows=1;rowLines=0;fontStyle=1;align=center;resizeLast=1;html=1;labelBackgroundColor=default;fillColor=#d5e8d4;strokeColor=#82b366;" vertex="1" parent="1">
          <mxGeometry x="-6430" y="380" width="470" height="300" as="geometry" />
        </mxCell>
        <mxCell id="qw3Gt2nW3UvpiBgJ2Ltj-2" value="" style="shape=tableRow;horizontal=0;startSize=0;swimlaneHead=0;swimlaneBody=0;fillColor=none;collapsible=0;dropTarget=0;points=[[0,0.5],[1,0.5]];portConstraint=eastwest;top=0;left=0;right=0;bottom=1;" vertex="1" parent="qw3Gt2nW3UvpiBgJ2Ltj-1">
          <mxGeometry y="30" width="470" height="30" as="geometry" />
        </mxCell>
        <mxCell id="qw3Gt2nW3UvpiBgJ2Ltj-3" value="PK" style="shape=partialRectangle;connectable=0;fillColor=none;top=0;left=0;bottom=0;right=0;fontStyle=1;overflow=hidden;whiteSpace=wrap;html=1;" vertex="1" parent="qw3Gt2nW3UvpiBgJ2Ltj-2">
          <mxGeometry width="30" height="30" as="geometry">
            <mxRectangle width="30" height="30" as="alternateBounds" />
          </mxGeometry>
        </mxCell>
        <mxCell id="qw3Gt2nW3UvpiBgJ2Ltj-4" value="`ID` bigint(20) NOT NULL AUTO_INCREMENT COMMENT &#39;自增ID&#39;" style="shape=partialRectangle;connectable=0;fillColor=none;top=0;left=0;bottom=0;right=0;align=left;spacingLeft=6;fontStyle=5;overflow=hidden;whiteSpace=wrap;html=1;" vertex="1" parent="qw3Gt2nW3UvpiBgJ2Ltj-2">
          <mxGeometry x="30" width="440" height="30" as="geometry">
            <mxRectangle width="440" height="30" as="alternateBounds" />
          </mxGeometry>
        </mxCell>
        <mxCell id="qw3Gt2nW3UvpiBgJ2Ltj-5" value="" style="shape=tableRow;horizontal=0;startSize=0;swimlaneHead=0;swimlaneBody=0;fillColor=none;collapsible=0;dropTarget=0;points=[[0,0.5],[1,0.5]];portConstraint=eastwest;top=0;left=0;right=0;bottom=0;" vertex="1" parent="qw3Gt2nW3UvpiBgJ2Ltj-1">
          <mxGeometry y="60" width="470" height="240" as="geometry" />
        </mxCell>
        <mxCell id="qw3Gt2nW3UvpiBgJ2Ltj-6" value="" style="shape=partialRectangle;connectable=0;fillColor=none;top=0;left=0;bottom=0;right=0;editable=1;overflow=hidden;whiteSpace=wrap;html=1;" vertex="1" parent="qw3Gt2nW3UvpiBgJ2Ltj-5">
          <mxGeometry width="30" height="240" as="geometry">
            <mxRectangle width="30" height="240" as="alternateBounds" />
          </mxGeometry>
        </mxCell>
        <mxCell id="qw3Gt2nW3UvpiBgJ2Ltj-7" value="&lt;div style=&quot;line-height: 130%;&quot;&gt;&lt;div style=&quot;line-height: 130%;&quot;&gt;&lt;div style=&quot;line-height: 130%;&quot;&gt;&lt;div style=&quot;line-height: 130%;&quot;&gt;&lt;div style=&quot;line-height: 130%;&quot;&gt;&lt;div style=&quot;line-height: 130%;&quot;&gt;&lt;div style=&quot;line-height: 130%;&quot;&gt;&lt;div data-docx-has-block-data=&quot;false&quot; data-page-id=&quot;YLrPdt7Foo4dSDxoeuHca6s7nCh&quot;&gt;&lt;div class=&quot;old-record-id-FmYydZvrjogUZuxv6E2cjADqneS&quot; style=&quot;&quot;&gt;&lt;div class=&quot;old-record-id-FmYydZvrjogUZuxv6E2cjADqneS&quot;&gt;&lt;div class=&quot;old-record-id-FmYydZvrjogUZuxv6E2cjADqneS&quot;&gt;&lt;div class=&quot;old-record-id-FmYydZvrjogUZuxv6E2cjADqneS&quot;&gt;&lt;div class=&quot;old-record-id-FmYydZvrjogUZuxv6E2cjADqneS&quot;&gt;CREATE TABLE `promotion_activity` (&lt;/div&gt;&lt;div class=&quot;old-record-id-FmYydZvrjogUZuxv6E2cjADqneS&quot;&gt;&amp;nbsp; `id` int(20) unsigned NOT NULL AUTO_INCREMENT COMMENT &#39;主键&#39;,&lt;/div&gt;&lt;div class=&quot;old-record-id-FmYydZvrjogUZuxv6E2cjADqneS&quot;&gt;&amp;nbsp; `parent_id` int(20) DEFAULT NULL COMMENT &#39;归属活动ID&amp;nbsp; 多协议&#39;,&lt;/div&gt;&lt;div class=&quot;old-record-id-FmYydZvrjogUZuxv6E2cjADqneS&quot;&gt;&amp;nbsp; `branch_id` int(20) DEFAULT NULL COMMENT &#39;主分支活动id&amp;nbsp; &#39;,&lt;/div&gt;&lt;div class=&quot;old-record-id-FmYydZvrjogUZuxv6E2cjADqneS&quot;&gt;&amp;nbsp; `activity_name` varchar(200) DEFAULT NULL COMMENT &#39;活动名称&#39;,&lt;/div&gt;&lt;div class=&quot;old-record-id-FmYydZvrjogUZuxv6E2cjADqneS&quot;&gt;&amp;nbsp; `activity_code` varchar(100) DEFAULT NULL COMMENT &#39;活动编码&#39;,&lt;/div&gt;&lt;div class=&quot;old-record-id-FmYydZvrjogUZuxv6E2cjADqneS&quot;&gt;&amp;nbsp; `start_time` datetime DEFAULT NULL COMMENT &#39;开始时间&#39;,&lt;/div&gt;&lt;div class=&quot;old-record-id-FmYydZvrjogUZuxv6E2cjADqneS&quot;&gt;&amp;nbsp; `end_time` datetime DEFAULT NULL COMMENT &#39;结束时间&#39;,&lt;/div&gt;&lt;div class=&quot;old-record-id-FmYydZvrjogUZuxv6E2cjADqneS&quot;&gt;&amp;nbsp; `actual_start_time` datetime DEFAULT NULL COMMENT &#39;实际开始时间&#39;,&lt;/div&gt;&lt;div class=&quot;old-record-id-FmYydZvrjogUZuxv6E2cjADqneS&quot;&gt;&amp;nbsp; `actual_end_time` datetime DEFAULT NULL COMMENT &#39;实际结束时间&#39;,&lt;/div&gt;&lt;div class=&quot;old-record-id-FmYydZvrjogUZuxv6E2cjADqneS&quot;&gt;&amp;nbsp; `full_amount` decimal(10,2) DEFAULT NULL COMMENT &#39;满&#39;,&lt;/div&gt;&lt;div class=&quot;old-record-id-FmYydZvrjogUZuxv6E2cjADqneS&quot;&gt;&amp;nbsp; `cut_amount` decimal(10,2) DEFAULT NULL COMMENT &#39;减&#39;,&lt;/div&gt;&lt;div class=&quot;old-record-id-FmYydZvrjogUZuxv6E2cjADqneS&quot;&gt;&amp;nbsp; `activity_type` int(4) unsigned NOT NULL DEFAULT &#39;4&#39; COMMENT &#39;活动类型 1 type1,2 type2,3 type3,4 type4&#39;,&lt;/div&gt;&lt;div class=&quot;old-record-id-FmYydZvrjogUZuxv6E2cjADqneS&quot;&gt;&amp;nbsp; `status` int(4) unsigned NOT NULL DEFAULT &#39;0&#39; COMMENT &#39;状态 （0：草稿，1：已提交，2：已审批，3：已拒绝）&#39;,&lt;/div&gt;&lt;div class=&quot;old-record-id-FmYydZvrjogUZuxv6E2cjADqneS&quot;&gt;&amp;nbsp; `publish_status` int(4) unsigned NOT NULL DEFAULT &#39;0&#39; COMMENT &#39;发布状态（0：未发布，1：已发布，2：已终止）&#39;,&lt;/div&gt;&lt;div class=&quot;old-record-id-FmYydZvrjogUZuxv6E2cjADqneS&quot;&gt;&amp;nbsp; `remark` varchar(2000) DEFAULT NULL COMMENT &#39;备注信息&#39;,&lt;/div&gt;&lt;div class=&quot;old-record-id-FmYydZvrjogUZuxv6E2cjADqneS&quot;&gt;&amp;nbsp; `creator_id` int(20) DEFAULT NULL COMMENT &#39;创建人ID&#39;,&lt;/div&gt;&lt;div class=&quot;old-record-id-FmYydZvrjogUZuxv6E2cjADqneS&quot;&gt;&amp;nbsp; `create_time` datetime DEFAULT NULL COMMENT &#39;创建时间&#39;,&lt;/div&gt;&lt;div class=&quot;old-record-id-FmYydZvrjogUZuxv6E2cjADqneS&quot;&gt;&amp;nbsp; `modify_time` datetime DEFAULT NULL ON UPDATE CURRENT_TIMESTAMP COMMENT &#39;最后修改时间&#39;,&lt;/div&gt;&lt;div class=&quot;old-record-id-FmYydZvrjogUZuxv6E2cjADqneS&quot;&gt;&amp;nbsp; `modifier_id` int(20) DEFAULT NULL COMMENT &#39;最后修改人&#39;,&lt;/div&gt;&lt;div class=&quot;old-record-id-FmYydZvrjogUZuxv6E2cjADqneS&quot;&gt;&amp;nbsp; `deleted` int(4) unsigned NOT NULL DEFAULT &#39;0&#39; COMMENT &#39;删除（0：未删除，1：已删除）&#39;,&lt;/div&gt;&lt;div class=&quot;old-record-id-FmYydZvrjogUZuxv6E2cjADqneS&quot;&gt;&amp;nbsp; `rollback_reason` varchar(2000) CHARACTER SET utf8 DEFAULT &#39;&#39; COMMENT &#39;回退原因&#39;,&lt;/div&gt;&lt;div class=&quot;old-record-id-FmYydZvrjogUZuxv6E2cjADqneS&quot;&gt;&amp;nbsp; `coupon_flag` tinyint(3) unsigned NOT NULL DEFAULT &#39;0&#39; COMMENT &#39;优惠券活动标识 （0：非优惠券，1：优惠券,2:折扣活动,3:积分活动）&#39;,&lt;/div&gt;&lt;div class=&quot;old-record-id-FmYydZvrjogUZuxv6E2cjADqneS&quot;&gt;&amp;nbsp; `page_config_id` bigint(20) DEFAULT NULL COMMENT &#39;关联页面配置ID&#39;,&lt;/div&gt;&lt;div class=&quot;old-record-id-FmYydZvrjogUZuxv6E2cjADqneS&quot;&gt;&amp;nbsp; `event_track_code` varchar(2000) DEFAULT NULL COMMENT &#39;埋点配置&#39;,&lt;/div&gt;&lt;div class=&quot;old-record-id-FmYydZvrjogUZuxv6E2cjADqneS&quot;&gt;&amp;nbsp; `node_code` varchar(255) DEFAULT NULL COMMENT &#39;审核节点编码&#39;,&lt;/div&gt;&lt;div class=&quot;old-record-id-FmYydZvrjogUZuxv6E2cjADqneS&quot;&gt;&amp;nbsp; `node_name` varchar(255) DEFAULT NULL COMMENT &#39;审核节点名称&#39;,&lt;/div&gt;&lt;div class=&quot;old-record-id-FmYydZvrjogUZuxv6E2cjADqneS&quot;&gt;&amp;nbsp; `node_user` varchar(20) DEFAULT NULL COMMENT &#39;指定审批人&#39;,&lt;/div&gt;&lt;div class=&quot;old-record-id-FmYydZvrjogUZuxv6E2cjADqneS&quot;&gt;&amp;nbsp; `return_flag` int(4) DEFAULT NULL COMMENT &#39;审核退回标志（1.退回）&#39;,&lt;/div&gt;&lt;div class=&quot;old-record-id-FmYydZvrjogUZuxv6E2cjADqneS&quot;&gt;&amp;nbsp; `pre_id` int(20) DEFAULT NULL COMMENT &#39;原活动ID 加料&#39;,&lt;/div&gt;&lt;div class=&quot;old-record-id-FmYydZvrjogUZuxv6E2cjADqneS&quot;&gt;&amp;nbsp; `lz_channel` varchar(32) DEFAULT NULL COMMENT &#39;留资渠道,多个逗个分隔(1-中台活动H5,2-OMS留资H5)&#39;,&lt;/div&gt;&lt;div class=&quot;old-record-id-FmYydZvrjogUZuxv6E2cjADqneS&quot;&gt;&amp;nbsp; `superimposed_feeding` varchar(32) DEFAULT NULL COMMENT &#39;是否优惠叠加加料（0,不叠加，1，叠加）&#39;,&lt;/div&gt;&lt;div class=&quot;old-record-id-FmYydZvrjogUZuxv6E2cjADqneS&quot;&gt;&amp;nbsp; `courtesyCoupon_id` int(11) DEFAULT NULL COMMENT &#39;礼劵活动id&#39;,&lt;/div&gt;&lt;div class=&quot;old-record-id-FmYydZvrjogUZuxv6E2cjADqneS&quot;&gt;&amp;nbsp; `isAutomation` int(4) DEFAULT NULL COMMENT &#39;是否自动发劵&#39;,&lt;/div&gt;&lt;div class=&quot;old-record-id-FmYydZvrjogUZuxv6E2cjADqneS&quot;&gt;&amp;nbsp; `dcFlag` int(4) DEFAULT NULL COMMENT &#39;是否关联dc&#39;,&lt;/div&gt;&lt;div class=&quot;old-record-id-FmYydZvrjogUZuxv6E2cjADqneS&quot;&gt;&amp;nbsp; `vendor_code` varchar(20) DEFAULT NULL COMMENT &#39;供应商编号&#39;,&lt;/div&gt;&lt;div class=&quot;old-record-id-FmYydZvrjogUZuxv6E2cjADqneS&quot;&gt;&amp;nbsp; `department_code` tinytext COMMENT &#39;活动所关联的部类号&#39;,&lt;/div&gt;&lt;div class=&quot;old-record-id-FmYydZvrjogUZuxv6E2cjADqneS&quot;&gt;&amp;nbsp; `include` int(5) DEFAULT NULL COMMENT &#39;包含排他&#39;,&lt;/div&gt;&lt;div class=&quot;old-record-id-FmYydZvrjogUZuxv6E2cjADqneS&quot;&gt;&amp;nbsp; `budget_type` int(4) DEFAULT NULL COMMENT &#39;预算类型(0固定金额1固定比例)&#39;,&lt;/div&gt;&lt;div class=&quot;old-record-id-FmYydZvrjogUZuxv6E2cjADqneS&quot;&gt;&amp;nbsp; `commitment_percent` varchar(100) DEFAULT NULL COMMENT &#39;供应商承担比例&#39;,&lt;/div&gt;&lt;div class=&quot;old-record-id-FmYydZvrjogUZuxv6E2cjADqneS&quot;&gt;&amp;nbsp; `adviertisement` varchar(2000) DEFAULT NULL COMMENT &#39;广告词&#39;,&lt;/div&gt;&lt;div class=&quot;old-record-id-FmYydZvrjogUZuxv6E2cjADqneS&quot;&gt;&amp;nbsp; `activity_reward_type` int(5) DEFAULT NULL COMMENT &#39;循环0,阶梯1&#39;,&lt;/div&gt;&lt;div class=&quot;old-record-id-FmYydZvrjogUZuxv6E2cjADqneS&quot;&gt;&amp;nbsp; `sendCouponChannel` varchar(100) DEFAULT NULL COMMENT &#39;&quot;1&quot;: &quot;零售&quot;, &quot;2&quot;: &quot;装潢中心&quot;, &quot;3&quot;: &quot;团购&quot;, &quot;4&quot;: &quot;直销&quot;, &quot;5&quot;: &quot;B2B&quot;, &quot;6&quot;: &quot;家装套餐&quot;, &quot;7&quot;: &quot;线上销售&quot;, &quot;8&quot;: &quot;S2B&quot;&#39;,&lt;/div&gt;&lt;div class=&quot;old-record-id-FmYydZvrjogUZuxv6E2cjADqneS&quot;&gt;&amp;nbsp; `useCouponChannel` varchar(100) DEFAULT NULL COMMENT &#39;&quot;1&quot;: &quot;零售&quot;, &quot;2&quot;: &quot;装潢中心&quot;, &quot;3&quot;: &quot;团购&quot;, &quot;4&quot;: &quot;直销&quot;, &quot;5&quot;: &quot;B2B&quot;, &quot;6&quot;: &quot;家装套餐&quot;, &quot;7&quot;: &quot;线上销售&quot;, &quot;8&quot;: &quot;S2B&quot;&#39;,&lt;/div&gt;&lt;div class=&quot;old-record-id-FmYydZvrjogUZuxv6E2cjADqneS&quot;&gt;&amp;nbsp; `isMarketBear` int(4) DEFAULT NULL COMMENT &#39;是否市场部自承担活动(1是,0否)&#39;,&lt;/div&gt;&lt;div class=&quot;old-record-id-FmYydZvrjogUZuxv6E2cjADqneS&quot;&gt;&amp;nbsp; `couponType` varchar(20) DEFAULT &#39;&#39; COMMENT &#39;优惠券类型&#39;,&lt;/div&gt;&lt;div class=&quot;old-record-id-FmYydZvrjogUZuxv6E2cjADqneS&quot;&gt;&amp;nbsp; `card_type` tinyint(5) DEFAULT &#39;1&#39; COMMENT &#39;会员卡类型 1会员卡类型,2会员卡号&#39;,&lt;/div&gt;&lt;div class=&quot;old-record-id-FmYydZvrjogUZuxv6E2cjADqneS&quot;&gt;&amp;nbsp; `customer_price` int(4) DEFAULT NULL COMMENT &#39;会员价是否&#39;,&lt;/div&gt;&lt;div class=&quot;old-record-id-FmYydZvrjogUZuxv6E2cjADqneS&quot;&gt;&amp;nbsp; `discount_mode` tinyint(3) DEFAULT &#39;0&#39; COMMENT &#39;满减模式 (0默认，1组合，品牌联盟) &#39;,&lt;/div&gt;&lt;div class=&quot;old-record-id-FmYydZvrjogUZuxv6E2cjADqneS&quot;&gt;&amp;nbsp; `discount_nature` tinyint(3) DEFAULT &#39;0&#39; COMMENT &#39;合同性质（0前置，1加购）&#39;,&lt;/div&gt;&lt;div class=&quot;old-record-id-FmYydZvrjogUZuxv6E2cjADqneS&quot;&gt;&amp;nbsp; `fix_price` tinyint(3) DEFAULT NULL COMMENT &#39;定价活动唯一标识&#39;,&lt;/div&gt;&lt;div class=&quot;old-record-id-FmYydZvrjogUZuxv6E2cjADqneS&quot;&gt;&amp;nbsp; `isSyn` tinyint(3) DEFAULT &#39;0&#39; COMMENT &#39;是否同步折扣到sap（0否，1是）&#39;,&lt;/div&gt;&lt;div class=&quot;old-record-id-FmYydZvrjogUZuxv6E2cjADqneS&quot;&gt;&amp;nbsp; `tag_id` int(4) DEFAULT NULL COMMENT &#39;活动标签&#39;,&lt;/div&gt;&lt;div class=&quot;old-record-id-FmYydZvrjogUZuxv6E2cjADqneS&quot;&gt;&amp;nbsp; `syn_flag` int(4) DEFAULT NULL,&lt;/div&gt;&lt;div class=&quot;old-record-id-FmYydZvrjogUZuxv6E2cjADqneS&quot;&gt;&amp;nbsp; `plus_customer_flag` tinyint(5) DEFAULT &#39;0&#39; COMMENT &#39;是否plus会员专享,1.是；0.否&#39;,&lt;/div&gt;&lt;div class=&quot;old-record-id-FmYydZvrjogUZuxv6E2cjADqneS&quot;&gt;&amp;nbsp; `channel_type_code` varchar(30) DEFAULT NULL COMMENT &#39;三级渠道编码&#39;,&lt;/div&gt;&lt;div class=&quot;old-record-id-FmYydZvrjogUZuxv6E2cjADqneS&quot;&gt;&amp;nbsp; `user_channel_type_code` varchar(30) DEFAULT NULL COMMENT &#39;用券三级渠道编码&#39;,&lt;/div&gt;&lt;div class=&quot;old-record-id-FmYydZvrjogUZuxv6E2cjADqneS&quot;&gt;&amp;nbsp; `ship_type` tinyint(2) DEFAULT NULL COMMENT &#39;赠送发货类型：1、下单即发货，2、指定时间发货（赠品活动使用）&#39;,&lt;/div&gt;&lt;div class=&quot;old-record-id-FmYydZvrjogUZuxv6E2cjADqneS&quot;&gt;&amp;nbsp; `ship_time` datetime DEFAULT NULL COMMENT &#39;赠送发货时间（赠品活动使用）&#39;,&lt;/div&gt;&lt;div class=&quot;old-record-id-FmYydZvrjogUZuxv6E2cjADqneS&quot;&gt;&amp;nbsp; PRIMARY KEY (`id`),&lt;/div&gt;&lt;div class=&quot;old-record-id-FmYydZvrjogUZuxv6E2cjADqneS&quot;&gt;&amp;nbsp; UNIQUE KEY `index_code` (`activity_code`) USING BTREE,&lt;/div&gt;&lt;div class=&quot;old-record-id-FmYydZvrjogUZuxv6E2cjADqneS&quot;&gt;&amp;nbsp; KEY `index_vendor_code` (`vendor_code`) USING BTREE,&lt;/div&gt;&lt;div class=&quot;old-record-id-FmYydZvrjogUZuxv6E2cjADqneS&quot;&gt;&amp;nbsp; KEY `index_department_code` (`department_code`(15)) USING BTREE,&lt;/div&gt;&lt;div class=&quot;old-record-id-FmYydZvrjogUZuxv6E2cjADqneS&quot;&gt;&amp;nbsp; KEY `index_courtesyCoupon_id` (`courtesyCoupon_id`) USING BTREE,&lt;/div&gt;&lt;div class=&quot;old-record-id-FmYydZvrjogUZuxv6E2cjADqneS&quot;&gt;&amp;nbsp; KEY `idx_branchid` (`branch_id`)&lt;/div&gt;&lt;div class=&quot;old-record-id-FmYydZvrjogUZuxv6E2cjADqneS&quot;&gt;) ENGINE=InnoDB AUTO_INCREMENT=117517 DEFAULT CHARSET=utf8mb4 COMMENT=&#39;促销活动基本信息表&#39;;&lt;/div&gt;&lt;/div&gt;&lt;/div&gt;&lt;/div&gt;&lt;/div&gt;&lt;/div&gt;&lt;/div&gt;&lt;/div&gt;&lt;/div&gt;&lt;/div&gt;&lt;/div&gt;&lt;/div&gt;&lt;/div&gt;" style="shape=partialRectangle;connectable=0;fillColor=default;top=0;left=0;bottom=0;right=0;align=left;spacingLeft=6;overflow=hidden;whiteSpace=wrap;html=1;" vertex="1" parent="qw3Gt2nW3UvpiBgJ2Ltj-5">
          <mxGeometry x="30" width="440" height="240" as="geometry">
            <mxRectangle width="440" height="240" as="alternateBounds" />
          </mxGeometry>
        </mxCell>
        <mxCell id="qw3Gt2nW3UvpiBgJ2Ltj-9" value="&lt;span style=&quot;background-color: rgb(213, 232, 212);&quot;&gt;promotion_contract_associate（促销合同活动关联表）&lt;/span&gt;" style="shape=table;startSize=30;container=1;collapsible=1;childLayout=tableLayout;fixedRows=1;rowLines=0;fontStyle=1;align=center;resizeLast=1;html=1;labelBackgroundColor=default;fillColor=#d5e8d4;strokeColor=#82b366;" vertex="1" parent="1">
          <mxGeometry x="-6430" y="1230" width="470" height="190" as="geometry" />
        </mxCell>
        <mxCell id="qw3Gt2nW3UvpiBgJ2Ltj-10" value="" style="shape=tableRow;horizontal=0;startSize=0;swimlaneHead=0;swimlaneBody=0;fillColor=none;collapsible=0;dropTarget=0;points=[[0,0.5],[1,0.5]];portConstraint=eastwest;top=0;left=0;right=0;bottom=1;" vertex="1" parent="qw3Gt2nW3UvpiBgJ2Ltj-9">
          <mxGeometry y="30" width="470" height="30" as="geometry" />
        </mxCell>
        <mxCell id="qw3Gt2nW3UvpiBgJ2Ltj-11" value="PK" style="shape=partialRectangle;connectable=0;fillColor=none;top=0;left=0;bottom=0;right=0;fontStyle=1;overflow=hidden;whiteSpace=wrap;html=1;" vertex="1" parent="qw3Gt2nW3UvpiBgJ2Ltj-10">
          <mxGeometry width="30" height="30" as="geometry">
            <mxRectangle width="30" height="30" as="alternateBounds" />
          </mxGeometry>
        </mxCell>
        <mxCell id="qw3Gt2nW3UvpiBgJ2Ltj-12" value="`ID` bigint(20) NOT NULL AUTO_INCREMENT COMMENT &#39;自增ID&#39;" style="shape=partialRectangle;connectable=0;fillColor=none;top=0;left=0;bottom=0;right=0;align=left;spacingLeft=6;fontStyle=5;overflow=hidden;whiteSpace=wrap;html=1;" vertex="1" parent="qw3Gt2nW3UvpiBgJ2Ltj-10">
          <mxGeometry x="30" width="440" height="30" as="geometry">
            <mxRectangle width="440" height="30" as="alternateBounds" />
          </mxGeometry>
        </mxCell>
        <mxCell id="qw3Gt2nW3UvpiBgJ2Ltj-13" value="" style="shape=tableRow;horizontal=0;startSize=0;swimlaneHead=0;swimlaneBody=0;fillColor=none;collapsible=0;dropTarget=0;points=[[0,0.5],[1,0.5]];portConstraint=eastwest;top=0;left=0;right=0;bottom=0;" vertex="1" parent="qw3Gt2nW3UvpiBgJ2Ltj-9">
          <mxGeometry y="60" width="470" height="130" as="geometry" />
        </mxCell>
        <mxCell id="qw3Gt2nW3UvpiBgJ2Ltj-14" value="" style="shape=partialRectangle;connectable=0;fillColor=none;top=0;left=0;bottom=0;right=0;editable=1;overflow=hidden;whiteSpace=wrap;html=1;" vertex="1" parent="qw3Gt2nW3UvpiBgJ2Ltj-13">
          <mxGeometry width="30" height="130" as="geometry">
            <mxRectangle width="30" height="130" as="alternateBounds" />
          </mxGeometry>
        </mxCell>
        <mxCell id="qw3Gt2nW3UvpiBgJ2Ltj-15" value="&lt;div style=&quot;line-height: 130%;&quot;&gt;&lt;div style=&quot;line-height: 130%;&quot;&gt;&lt;div style=&quot;line-height: 130%;&quot;&gt;&lt;div style=&quot;line-height: 130%;&quot;&gt;&lt;div style=&quot;line-height: 130%;&quot;&gt;&lt;div style=&quot;line-height: 130%;&quot;&gt;&lt;div style=&quot;line-height: 130%;&quot;&gt;&lt;div data-docx-has-block-data=&quot;false&quot; data-page-id=&quot;YLrPdt7Foo4dSDxoeuHca6s7nCh&quot;&gt;&lt;div class=&quot;old-record-id-FmYydZvrjogUZuxv6E2cjADqneS&quot; style=&quot;&quot;&gt;&lt;div class=&quot;old-record-id-FmYydZvrjogUZuxv6E2cjADqneS&quot;&gt;&lt;div class=&quot;old-record-id-FmYydZvrjogUZuxv6E2cjADqneS&quot;&gt;&lt;div class=&quot;old-record-id-FmYydZvrjogUZuxv6E2cjADqneS&quot;&gt;&lt;div class=&quot;old-record-id-FmYydZvrjogUZuxv6E2cjADqneS&quot;&gt;&lt;div class=&quot;old-record-id-FmYydZvrjogUZuxv6E2cjADqneS&quot;&gt;&lt;div class=&quot;old-record-id-FmYydZvrjogUZuxv6E2cjADqneS&quot;&gt;&lt;div class=&quot;old-record-id-FmYydZvrjogUZuxv6E2cjADqneS&quot;&gt;&lt;div class=&quot;old-record-id-FmYydZvrjogUZuxv6E2cjADqneS&quot;&gt;&lt;div class=&quot;old-record-id-FmYydZvrjogUZuxv6E2cjADqneS&quot;&gt;&lt;div class=&quot;old-record-id-FmYydZvrjogUZuxv6E2cjADqneS&quot;&gt;CREATE TABLE `promotion_contract_associate` (&lt;/div&gt;&lt;div class=&quot;old-record-id-FmYydZvrjogUZuxv6E2cjADqneS&quot;&gt;&amp;nbsp; `id` int(20) NOT NULL AUTO_INCREMENT COMMENT &#39;主键&#39;,&lt;/div&gt;&lt;div class=&quot;old-record-id-FmYydZvrjogUZuxv6E2cjADqneS&quot;&gt;&amp;nbsp; `contract_code` varchar(20) DEFAULT NULL COMMENT &#39;合同编号&#39;,&lt;/div&gt;&lt;div class=&quot;old-record-id-FmYydZvrjogUZuxv6E2cjADqneS&quot;&gt;&amp;nbsp; `flag` tinyint(4) DEFAULT NULL COMMENT &#39;标志(1表示门店,2表示活动,3表示商品)&#39;,&lt;/div&gt;&lt;div class=&quot;old-record-id-FmYydZvrjogUZuxv6E2cjADqneS&quot;&gt;&amp;nbsp; `associate_id` int(20) DEFAULT NULL COMMENT &#39;与合同关联的ID&#39;,&lt;/div&gt;&lt;div class=&quot;old-record-id-FmYydZvrjogUZuxv6E2cjADqneS&quot;&gt;&amp;nbsp; `participate` tinyint(4) DEFAULT &#39;1&#39; COMMENT &#39;包含排他(0所有,1包含,2排他)&#39;,&lt;/div&gt;&lt;div class=&quot;old-record-id-FmYydZvrjogUZuxv6E2cjADqneS&quot;&gt;&amp;nbsp; `creator_id` int(20) DEFAULT NULL COMMENT &#39;创建人&#39;,&lt;/div&gt;&lt;div class=&quot;old-record-id-FmYydZvrjogUZuxv6E2cjADqneS&quot;&gt;&amp;nbsp; `create_time` datetime DEFAULT NULL COMMENT &#39;创建时间&#39;,&lt;/div&gt;&lt;div class=&quot;old-record-id-FmYydZvrjogUZuxv6E2cjADqneS&quot;&gt;&amp;nbsp; `modifier_id` int(20) DEFAULT NULL COMMENT &#39;修改人&#39;,&lt;/div&gt;&lt;div class=&quot;old-record-id-FmYydZvrjogUZuxv6E2cjADqneS&quot;&gt;&amp;nbsp; `modify_time` datetime DEFAULT NULL COMMENT &#39;修改时间&#39;,&lt;/div&gt;&lt;div class=&quot;old-record-id-FmYydZvrjogUZuxv6E2cjADqneS&quot;&gt;&amp;nbsp; `deleted` tinyint(4) DEFAULT &#39;0&#39; COMMENT &#39;删除(0未删除,1删除)&#39;,&lt;/div&gt;&lt;div class=&quot;old-record-id-FmYydZvrjogUZuxv6E2cjADqneS&quot;&gt;&amp;nbsp; `vendor_code` varchar(100) DEFAULT NULL COMMENT &#39;供应商编号&#39;,&lt;/div&gt;&lt;div class=&quot;old-record-id-FmYydZvrjogUZuxv6E2cjADqneS&quot;&gt;&amp;nbsp; `contract_status` varchar(16) DEFAULT NULL COMMENT &#39;合同状态&#39;,&lt;/div&gt;&lt;div class=&quot;old-record-id-FmYydZvrjogUZuxv6E2cjADqneS&quot;&gt;&amp;nbsp; `start_time` datetime DEFAULT NULL COMMENT &#39;开始时间&#39;,&lt;/div&gt;&lt;div class=&quot;old-record-id-FmYydZvrjogUZuxv6E2cjADqneS&quot;&gt;&amp;nbsp; `end_time` datetime DEFAULT NULL COMMENT &#39;结束时间&#39;,&lt;/div&gt;&lt;div class=&quot;old-record-id-FmYydZvrjogUZuxv6E2cjADqneS&quot;&gt;&amp;nbsp; `term_value` varchar(16) DEFAULT NULL COMMENT &#39;承担方式&#39;,&lt;/div&gt;&lt;div class=&quot;old-record-id-FmYydZvrjogUZuxv6E2cjADqneS&quot;&gt;&amp;nbsp; `fixed_rate` decimal(10,2) DEFAULT NULL COMMENT &#39;固定比例(小比例)&#39;,&lt;/div&gt;&lt;div class=&quot;old-record-id-FmYydZvrjogUZuxv6E2cjADqneS&quot;&gt;&amp;nbsp; `discount` decimal(10,2) DEFAULT NULL COMMENT &#39;折扣(大比例)&#39;,&lt;/div&gt;&lt;div class=&quot;old-record-id-FmYydZvrjogUZuxv6E2cjADqneS&quot;&gt;&amp;nbsp; `fixed_amount` decimal(15,2) DEFAULT NULL COMMENT &#39;固定金额&#39;,&lt;/div&gt;&lt;div class=&quot;old-record-id-FmYydZvrjogUZuxv6E2cjADqneS&quot;&gt;&amp;nbsp; `little_rate` decimal(10,2) DEFAULT NULL COMMENT &#39;小比例(不属于合同信息)&#39;,&lt;/div&gt;&lt;div class=&quot;old-record-id-FmYydZvrjogUZuxv6E2cjADqneS&quot;&gt;&amp;nbsp; `large_rate` decimal(10,2) DEFAULT NULL COMMENT &#39;大比例,一般为空(由公式计算)(不属于合同信息&#39;,&lt;/div&gt;&lt;div class=&quot;old-record-id-FmYydZvrjogUZuxv6E2cjADqneS&quot;&gt;&amp;nbsp; `vendor_name` varchar(100) DEFAULT NULL COMMENT &#39;供应商名称&#39;,&lt;/div&gt;&lt;div class=&quot;old-record-id-FmYydZvrjogUZuxv6E2cjADqneS&quot;&gt;&amp;nbsp; `category_code` tinytext COMMENT &#39;部类号&#39;,&lt;/div&gt;&lt;div class=&quot;old-record-id-FmYydZvrjogUZuxv6E2cjADqneS&quot;&gt;&amp;nbsp; `category_name` text COMMENT &#39;部类名称&#39;,&lt;/div&gt;&lt;div class=&quot;old-record-id-FmYydZvrjogUZuxv6E2cjADqneS&quot;&gt;&amp;nbsp; `sa_flag` tinyint(4) DEFAULT &#39;0&#39; COMMENT &#39;特批标识 1特批 0非特批&#39;,&lt;/div&gt;&lt;div class=&quot;old-record-id-FmYydZvrjogUZuxv6E2cjADqneS&quot;&gt;&amp;nbsp; `vendor_cm` decimal(10,2) DEFAULT NULL COMMENT &#39;供应商%CM&#39;,&lt;/div&gt;&lt;div class=&quot;old-record-id-FmYydZvrjogUZuxv6E2cjADqneS&quot;&gt;&amp;nbsp; `front_gross_rate` decimal(10,2) DEFAULT NULL COMMENT &#39;供应商前台毛利率&#39;,&lt;/div&gt;&lt;div class=&quot;old-record-id-FmYydZvrjogUZuxv6E2cjADqneS&quot;&gt;&amp;nbsp; `invented` tinyint(4) DEFAULT &#39;0&#39; COMMENT &#39;是否是虚拟协议1 是,0 不是&#39;,&lt;/div&gt;&lt;div class=&quot;old-record-id-FmYydZvrjogUZuxv6E2cjADqneS&quot;&gt;&amp;nbsp; `transfer_flag` tinyint(4) DEFAULT &#39;0&#39; COMMENT &#39;是否转签1是,0否&#39;,&lt;/div&gt;&lt;div class=&quot;old-record-id-FmYydZvrjogUZuxv6E2cjADqneS&quot;&gt;&amp;nbsp; `success` int(5) DEFAULT NULL COMMENT &#39;0b0001 可提交, 0b0010门店错误, 0b0100商品错误, 0b1000Filter错误, 0未执行&#39;,&lt;/div&gt;&lt;div class=&quot;old-record-id-FmYydZvrjogUZuxv6E2cjADqneS&quot;&gt;&amp;nbsp; `type` tinyint(4) DEFAULT NULL COMMENT &#39;合同类型 5 muds&#39;,&lt;/div&gt;&lt;div class=&quot;old-record-id-FmYydZvrjogUZuxv6E2cjADqneS&quot;&gt;&amp;nbsp; PRIMARY KEY (`id`),&lt;/div&gt;&lt;div class=&quot;old-record-id-FmYydZvrjogUZuxv6E2cjADqneS&quot;&gt;&amp;nbsp; KEY `idx_contract` (`contract_code`),&lt;/div&gt;&lt;div class=&quot;old-record-id-FmYydZvrjogUZuxv6E2cjADqneS&quot;&gt;&amp;nbsp; KEY `idx_actid` (`associate_id`),&lt;/div&gt;&lt;div class=&quot;old-record-id-FmYydZvrjogUZuxv6E2cjADqneS&quot;&gt;&amp;nbsp; KEY `idx_vendor_code` (`vendor_code`) USING BTREE&lt;/div&gt;&lt;div class=&quot;old-record-id-FmYydZvrjogUZuxv6E2cjADqneS&quot;&gt;) ENGINE=InnoDB AUTO_INCREMENT=18461 DEFAULT CHARSET=utf8mb4 COMMENT=&#39;合同关联活动表&#39;;&lt;/div&gt;&lt;/div&gt;&lt;/div&gt;&lt;/div&gt;&lt;/div&gt;&lt;/div&gt;&lt;/div&gt;&lt;/div&gt;&lt;/div&gt;&lt;/div&gt;&lt;/div&gt;&lt;/div&gt;&lt;/div&gt;&lt;/div&gt;&lt;/div&gt;&lt;/div&gt;&lt;/div&gt;&lt;/div&gt;&lt;/div&gt;" style="shape=partialRectangle;connectable=0;fillColor=default;top=0;left=0;bottom=0;right=0;align=left;spacingLeft=6;overflow=hidden;whiteSpace=wrap;html=1;" vertex="1" parent="qw3Gt2nW3UvpiBgJ2Ltj-13">
          <mxGeometry x="30" width="440" height="130" as="geometry">
            <mxRectangle width="440" height="130" as="alternateBounds" />
          </mxGeometry>
        </mxCell>
        <mxCell id="qw3Gt2nW3UvpiBgJ2Ltj-21" value="&lt;span style=&quot;background-color: rgb(213, 232, 212);&quot;&gt;promotion_activity_cardno（促销活动卡）&lt;/span&gt;" style="shape=table;startSize=30;container=1;collapsible=1;childLayout=tableLayout;fixedRows=1;rowLines=0;fontStyle=1;align=center;resizeLast=1;html=1;labelBackgroundColor=default;fillColor=#d5e8d4;strokeColor=#82b366;" vertex="1" parent="1">
          <mxGeometry x="-5240" y="380" width="470" height="300" as="geometry" />
        </mxCell>
        <mxCell id="qw3Gt2nW3UvpiBgJ2Ltj-22" value="" style="shape=tableRow;horizontal=0;startSize=0;swimlaneHead=0;swimlaneBody=0;fillColor=none;collapsible=0;dropTarget=0;points=[[0,0.5],[1,0.5]];portConstraint=eastwest;top=0;left=0;right=0;bottom=1;" vertex="1" parent="qw3Gt2nW3UvpiBgJ2Ltj-21">
          <mxGeometry y="30" width="470" height="30" as="geometry" />
        </mxCell>
        <mxCell id="qw3Gt2nW3UvpiBgJ2Ltj-23" value="PK" style="shape=partialRectangle;connectable=0;fillColor=none;top=0;left=0;bottom=0;right=0;fontStyle=1;overflow=hidden;whiteSpace=wrap;html=1;" vertex="1" parent="qw3Gt2nW3UvpiBgJ2Ltj-22">
          <mxGeometry width="30" height="30" as="geometry">
            <mxRectangle width="30" height="30" as="alternateBounds" />
          </mxGeometry>
        </mxCell>
        <mxCell id="qw3Gt2nW3UvpiBgJ2Ltj-24" value="`ID` bigint(20) NOT NULL AUTO_INCREMENT COMMENT &#39;自增ID&#39;" style="shape=partialRectangle;connectable=0;fillColor=none;top=0;left=0;bottom=0;right=0;align=left;spacingLeft=6;fontStyle=5;overflow=hidden;whiteSpace=wrap;html=1;" vertex="1" parent="qw3Gt2nW3UvpiBgJ2Ltj-22">
          <mxGeometry x="30" width="440" height="30" as="geometry">
            <mxRectangle width="440" height="30" as="alternateBounds" />
          </mxGeometry>
        </mxCell>
        <mxCell id="qw3Gt2nW3UvpiBgJ2Ltj-25" value="" style="shape=tableRow;horizontal=0;startSize=0;swimlaneHead=0;swimlaneBody=0;fillColor=none;collapsible=0;dropTarget=0;points=[[0,0.5],[1,0.5]];portConstraint=eastwest;top=0;left=0;right=0;bottom=0;" vertex="1" parent="qw3Gt2nW3UvpiBgJ2Ltj-21">
          <mxGeometry y="60" width="470" height="240" as="geometry" />
        </mxCell>
        <mxCell id="qw3Gt2nW3UvpiBgJ2Ltj-26" value="" style="shape=partialRectangle;connectable=0;fillColor=none;top=0;left=0;bottom=0;right=0;editable=1;overflow=hidden;whiteSpace=wrap;html=1;" vertex="1" parent="qw3Gt2nW3UvpiBgJ2Ltj-25">
          <mxGeometry width="30" height="240" as="geometry">
            <mxRectangle width="30" height="240" as="alternateBounds" />
          </mxGeometry>
        </mxCell>
        <mxCell id="qw3Gt2nW3UvpiBgJ2Ltj-27" value="&lt;div style=&quot;line-height: 130%;&quot;&gt;&lt;div style=&quot;line-height: 130%;&quot;&gt;&lt;div style=&quot;line-height: 130%;&quot;&gt;&lt;div style=&quot;line-height: 130%;&quot;&gt;&lt;div style=&quot;line-height: 130%;&quot;&gt;&lt;div style=&quot;line-height: 130%;&quot;&gt;&lt;div style=&quot;line-height: 130%;&quot;&gt;&lt;div data-docx-has-block-data=&quot;false&quot; data-page-id=&quot;YLrPdt7Foo4dSDxoeuHca6s7nCh&quot;&gt;&lt;div class=&quot;old-record-id-FmYydZvrjogUZuxv6E2cjADqneS&quot; style=&quot;&quot;&gt;&lt;div class=&quot;old-record-id-FmYydZvrjogUZuxv6E2cjADqneS&quot;&gt;&lt;div class=&quot;old-record-id-FmYydZvrjogUZuxv6E2cjADqneS&quot;&gt;&lt;div class=&quot;old-record-id-FmYydZvrjogUZuxv6E2cjADqneS&quot;&gt;&lt;div class=&quot;old-record-id-FmYydZvrjogUZuxv6E2cjADqneS&quot;&gt;&lt;div class=&quot;old-record-id-FmYydZvrjogUZuxv6E2cjADqneS&quot;&gt;CREATE TABLE `promotion_activity_cardno` (&lt;/div&gt;&lt;div class=&quot;old-record-id-FmYydZvrjogUZuxv6E2cjADqneS&quot;&gt;&amp;nbsp; `id` int(20) unsigned NOT NULL AUTO_INCREMENT COMMENT &#39;主键&#39;,&lt;/div&gt;&lt;div class=&quot;old-record-id-FmYydZvrjogUZuxv6E2cjADqneS&quot;&gt;&amp;nbsp; `status` int(4) unsigned NOT NULL DEFAULT &#39;0&#39; COMMENT &#39;状态 0有效,1失效&#39;,&lt;/div&gt;&lt;div class=&quot;old-record-id-FmYydZvrjogUZuxv6E2cjADqneS&quot;&gt;&amp;nbsp; `remark` varchar(2000) DEFAULT NULL COMMENT &#39;备注信息&#39;,&lt;/div&gt;&lt;div class=&quot;old-record-id-FmYydZvrjogUZuxv6E2cjADqneS&quot;&gt;&amp;nbsp; `creator_id` int(20) DEFAULT NULL COMMENT &#39;创建人ID&#39;,&lt;/div&gt;&lt;div class=&quot;old-record-id-FmYydZvrjogUZuxv6E2cjADqneS&quot;&gt;&amp;nbsp; `create_time` datetime DEFAULT NULL COMMENT &#39;创建时间&#39;,&lt;/div&gt;&lt;div class=&quot;old-record-id-FmYydZvrjogUZuxv6E2cjADqneS&quot;&gt;&amp;nbsp; `modify_time` datetime DEFAULT NULL ON UPDATE CURRENT_TIMESTAMP COMMENT &#39;最后修改时间&#39;,&lt;/div&gt;&lt;div class=&quot;old-record-id-FmYydZvrjogUZuxv6E2cjADqneS&quot;&gt;&amp;nbsp; `modifier_id` int(20) DEFAULT NULL COMMENT &#39;最后修改人&#39;,&lt;/div&gt;&lt;div class=&quot;old-record-id-FmYydZvrjogUZuxv6E2cjADqneS&quot;&gt;&amp;nbsp; `deleted` int(4) unsigned NOT NULL DEFAULT &#39;0&#39; COMMENT &#39;删除（0：未删除，1：已删除）&#39;,&lt;/div&gt;&lt;div class=&quot;old-record-id-FmYydZvrjogUZuxv6E2cjADqneS&quot;&gt;&amp;nbsp; `activity_id` int(20) DEFAULT NULL COMMENT &#39;活动编号ID&#39;,&lt;/div&gt;&lt;div class=&quot;old-record-id-FmYydZvrjogUZuxv6E2cjADqneS&quot;&gt;&amp;nbsp; `customer_ecard_no` varchar(100) CHARACTER SET utf8 DEFAULT NULL COMMENT &#39;卡号信息&#39;,&lt;/div&gt;&lt;div class=&quot;old-record-id-FmYydZvrjogUZuxv6E2cjADqneS&quot;&gt;&amp;nbsp; PRIMARY KEY (`id`),&lt;/div&gt;&lt;div class=&quot;old-record-id-FmYydZvrjogUZuxv6E2cjADqneS&quot;&gt;&amp;nbsp; UNIQUE KEY `unique_activity_id_ecard_no` (`activity_id`,`customer_ecard_no`) USING BTREE COMMENT &#39;活动卡号唯一索引&#39;&lt;/div&gt;&lt;div class=&quot;old-record-id-FmYydZvrjogUZuxv6E2cjADqneS&quot;&gt;) ENGINE=InnoDB AUTO_INCREMENT=12 DEFAULT CHARSET=utf8mb4 ROW_FORMAT=DYNAMIC;&lt;/div&gt;&lt;/div&gt;&lt;/div&gt;&lt;/div&gt;&lt;/div&gt;&lt;/div&gt;&lt;/div&gt;&lt;/div&gt;&lt;/div&gt;&lt;/div&gt;&lt;/div&gt;&lt;/div&gt;&lt;/div&gt;&lt;/div&gt;" style="shape=partialRectangle;connectable=0;fillColor=default;top=0;left=0;bottom=0;right=0;align=left;spacingLeft=6;overflow=hidden;whiteSpace=wrap;html=1;" vertex="1" parent="qw3Gt2nW3UvpiBgJ2Ltj-25">
          <mxGeometry x="30" width="440" height="240" as="geometry">
            <mxRectangle width="440" height="240" as="alternateBounds" />
          </mxGeometry>
        </mxCell>
        <mxCell id="qw3Gt2nW3UvpiBgJ2Ltj-28" style="edgeStyle=orthogonalEdgeStyle;rounded=0;orthogonalLoop=1;jettySize=auto;html=1;entryX=0;entryY=0.5;entryDx=0;entryDy=0;" edge="1" parent="1" source="qw3Gt2nW3UvpiBgJ2Ltj-5" target="qw3Gt2nW3UvpiBgJ2Ltj-25">
          <mxGeometry relative="1" as="geometry" />
        </mxCell>
        <mxCell id="qw3Gt2nW3UvpiBgJ2Ltj-29" value="&lt;span style=&quot;font-size: 12px; text-align: left; text-wrap: wrap; background-color: rgb(251, 251, 251);&quot;&gt;activity_id&lt;/span&gt;" style="edgeLabel;html=1;align=center;verticalAlign=middle;resizable=0;points=[];" vertex="1" connectable="0" parent="qw3Gt2nW3UvpiBgJ2Ltj-28">
          <mxGeometry x="0.8488" y="1" relative="1" as="geometry">
            <mxPoint as="offset" />
          </mxGeometry>
        </mxCell>
        <mxCell id="qw3Gt2nW3UvpiBgJ2Ltj-30" value="id" style="edgeLabel;html=1;align=center;verticalAlign=middle;resizable=0;points=[];" vertex="1" connectable="0" parent="qw3Gt2nW3UvpiBgJ2Ltj-28">
          <mxGeometry x="-0.8055" relative="1" as="geometry">
            <mxPoint as="offset" />
          </mxGeometry>
        </mxCell>
        <mxCell id="qw3Gt2nW3UvpiBgJ2Ltj-85" style="edgeStyle=orthogonalEdgeStyle;rounded=0;orthogonalLoop=1;jettySize=auto;html=1;" edge="1" parent="1" source="qw3Gt2nW3UvpiBgJ2Ltj-32" target="qw3Gt2nW3UvpiBgJ2Ltj-62">
          <mxGeometry relative="1" as="geometry" />
        </mxCell>
        <mxCell id="qw3Gt2nW3UvpiBgJ2Ltj-32" value="&lt;div style=&quot;text-align: left;&quot;&gt;&lt;span style=&quot;background-color: rgb(213, 232, 212);&quot;&gt;promotion_entity（子活动- 实体信息）&lt;/span&gt;&lt;br&gt;&lt;/div&gt;" style="shape=table;startSize=30;container=1;collapsible=1;childLayout=tableLayout;fixedRows=1;rowLines=0;fontStyle=1;align=center;resizeLast=1;html=1;labelBackgroundColor=default;fillColor=#d5e8d4;strokeColor=#82b366;" vertex="1" parent="1">
          <mxGeometry x="-7970" y="490" width="470" height="290" as="geometry" />
        </mxCell>
        <mxCell id="qw3Gt2nW3UvpiBgJ2Ltj-33" value="" style="shape=tableRow;horizontal=0;startSize=0;swimlaneHead=0;swimlaneBody=0;fillColor=none;collapsible=0;dropTarget=0;points=[[0,0.5],[1,0.5]];portConstraint=eastwest;top=0;left=0;right=0;bottom=1;" vertex="1" parent="qw3Gt2nW3UvpiBgJ2Ltj-32">
          <mxGeometry y="30" width="470" height="20" as="geometry" />
        </mxCell>
        <mxCell id="qw3Gt2nW3UvpiBgJ2Ltj-34" value="PK" style="shape=partialRectangle;connectable=0;fillColor=none;top=0;left=0;bottom=0;right=0;fontStyle=1;overflow=hidden;whiteSpace=wrap;html=1;" vertex="1" parent="qw3Gt2nW3UvpiBgJ2Ltj-33">
          <mxGeometry width="30" height="20" as="geometry">
            <mxRectangle width="30" height="20" as="alternateBounds" />
          </mxGeometry>
        </mxCell>
        <mxCell id="qw3Gt2nW3UvpiBgJ2Ltj-35" value="`ID` bigint(20) NOT NULL AUTO_INCREMENT COMMENT &#39;自增ID&#39;" style="shape=partialRectangle;connectable=0;fillColor=none;top=0;left=0;bottom=0;right=0;align=left;spacingLeft=6;fontStyle=5;overflow=hidden;whiteSpace=wrap;html=1;" vertex="1" parent="qw3Gt2nW3UvpiBgJ2Ltj-33">
          <mxGeometry x="30" width="440" height="20" as="geometry">
            <mxRectangle width="440" height="20" as="alternateBounds" />
          </mxGeometry>
        </mxCell>
        <mxCell id="qw3Gt2nW3UvpiBgJ2Ltj-36" value="" style="shape=tableRow;horizontal=0;startSize=0;swimlaneHead=0;swimlaneBody=0;fillColor=none;collapsible=0;dropTarget=0;points=[[0,0.5],[1,0.5]];portConstraint=eastwest;top=0;left=0;right=0;bottom=0;" vertex="1" parent="qw3Gt2nW3UvpiBgJ2Ltj-32">
          <mxGeometry y="50" width="470" height="240" as="geometry" />
        </mxCell>
        <mxCell id="qw3Gt2nW3UvpiBgJ2Ltj-37" value="" style="shape=partialRectangle;connectable=0;fillColor=none;top=0;left=0;bottom=0;right=0;editable=1;overflow=hidden;whiteSpace=wrap;html=1;" vertex="1" parent="qw3Gt2nW3UvpiBgJ2Ltj-36">
          <mxGeometry width="30" height="240" as="geometry">
            <mxRectangle width="30" height="240" as="alternateBounds" />
          </mxGeometry>
        </mxCell>
        <mxCell id="qw3Gt2nW3UvpiBgJ2Ltj-38" value="&lt;div style=&quot;line-height: 130%;&quot;&gt;&lt;div style=&quot;line-height: 130%;&quot;&gt;&lt;div style=&quot;line-height: 130%;&quot;&gt;&lt;div style=&quot;line-height: 130%;&quot;&gt;&lt;div style=&quot;line-height: 130%;&quot;&gt;&lt;div style=&quot;line-height: 130%;&quot;&gt;&lt;div style=&quot;line-height: 130%;&quot;&gt;&lt;div data-docx-has-block-data=&quot;false&quot; data-page-id=&quot;YLrPdt7Foo4dSDxoeuHca6s7nCh&quot;&gt;&lt;div class=&quot;old-record-id-FmYydZvrjogUZuxv6E2cjADqneS&quot; style=&quot;&quot;&gt;&lt;div class=&quot;old-record-id-FmYydZvrjogUZuxv6E2cjADqneS&quot;&gt;&lt;div class=&quot;old-record-id-FmYydZvrjogUZuxv6E2cjADqneS&quot;&gt;&lt;div class=&quot;old-record-id-FmYydZvrjogUZuxv6E2cjADqneS&quot;&gt;&lt;div class=&quot;old-record-id-FmYydZvrjogUZuxv6E2cjADqneS&quot;&gt;&lt;div class=&quot;old-record-id-FmYydZvrjogUZuxv6E2cjADqneS&quot;&gt;&lt;div class=&quot;old-record-id-FmYydZvrjogUZuxv6E2cjADqneS&quot;&gt;CREATE TABLE `promotion_entity` (&lt;/div&gt;&lt;div class=&quot;old-record-id-FmYydZvrjogUZuxv6E2cjADqneS&quot;&gt;&amp;nbsp; `id` int(20) NOT NULL AUTO_INCREMENT COMMENT &#39;主键&#39;,&lt;/div&gt;&lt;div class=&quot;old-record-id-FmYydZvrjogUZuxv6E2cjADqneS&quot;&gt;&amp;nbsp; `activity_id` int(20) DEFAULT NULL COMMENT &#39;活动ID&#39;,&lt;/div&gt;&lt;div class=&quot;old-record-id-FmYydZvrjogUZuxv6E2cjADqneS&quot;&gt;&amp;nbsp; `entity_type` int(4) DEFAULT &#39;1&#39; COMMENT &#39;主体类型（1：门店）&#39;,&lt;/div&gt;&lt;div class=&quot;old-record-id-FmYydZvrjogUZuxv6E2cjADqneS&quot;&gt;&amp;nbsp; `entity_code` varchar(100) DEFAULT NULL COMMENT &#39;主体编码&#39;,&lt;/div&gt;&lt;div class=&quot;old-record-id-FmYydZvrjogUZuxv6E2cjADqneS&quot;&gt;&amp;nbsp; `entity_name` varchar(100) DEFAULT NULL COMMENT &#39;主体名称&#39;,&lt;/div&gt;&lt;div class=&quot;old-record-id-FmYydZvrjogUZuxv6E2cjADqneS&quot;&gt;&amp;nbsp; `status` int(4) DEFAULT &#39;1&#39; COMMENT &#39;状态 1有效 0&#39;,&lt;/div&gt;&lt;div class=&quot;old-record-id-FmYydZvrjogUZuxv6E2cjADqneS&quot;&gt;&amp;nbsp; `deleted` int(4) DEFAULT &#39;0&#39; COMMENT &#39;删除&#39;,&lt;/div&gt;&lt;div class=&quot;old-record-id-FmYydZvrjogUZuxv6E2cjADqneS&quot;&gt;&amp;nbsp; `remark` varchar(2000) DEFAULT NULL,&lt;/div&gt;&lt;div class=&quot;old-record-id-FmYydZvrjogUZuxv6E2cjADqneS&quot;&gt;&amp;nbsp; `creator_id` int(20) DEFAULT NULL COMMENT &#39;创建人ID&#39;,&lt;/div&gt;&lt;div class=&quot;old-record-id-FmYydZvrjogUZuxv6E2cjADqneS&quot;&gt;&amp;nbsp; `create_time` datetime DEFAULT NULL COMMENT &#39;创建时间&#39;,&lt;/div&gt;&lt;div class=&quot;old-record-id-FmYydZvrjogUZuxv6E2cjADqneS&quot;&gt;&amp;nbsp; `modify_time` datetime DEFAULT NULL ON UPDATE CURRENT_TIMESTAMP COMMENT &#39;最后修改时间&#39;,&lt;/div&gt;&lt;div class=&quot;old-record-id-FmYydZvrjogUZuxv6E2cjADqneS&quot;&gt;&amp;nbsp; `modifier_id` int(20) DEFAULT NULL COMMENT &#39;最后修改人&#39;,&lt;/div&gt;&lt;div class=&quot;old-record-id-FmYydZvrjogUZuxv6E2cjADqneS&quot;&gt;&amp;nbsp; `coupons_budget` varchar(100) DEFAULT NULL COMMENT &#39;发劵金额预算&#39;,&lt;/div&gt;&lt;div class=&quot;old-record-id-FmYydZvrjogUZuxv6E2cjADqneS&quot;&gt;&amp;nbsp; `nodeStatus` int(4) DEFAULT &#39;1&#39; COMMENT &#39;生效状态&#39;,&lt;/div&gt;&lt;div class=&quot;old-record-id-FmYydZvrjogUZuxv6E2cjADqneS&quot;&gt;&amp;nbsp; PRIMARY KEY (`id`),&lt;/div&gt;&lt;div class=&quot;old-record-id-FmYydZvrjogUZuxv6E2cjADqneS&quot;&gt;&amp;nbsp; UNIQUE KEY `unq_activityId_entityCode` (`activity_id`,`entity_code`) USING BTREE&lt;/div&gt;&lt;div class=&quot;old-record-id-FmYydZvrjogUZuxv6E2cjADqneS&quot;&gt;) ENGINE=InnoDB AUTO_INCREMENT=174807 DEFAULT CHARSET=utf8mb4 COMMENT=&#39;促销主体表&#39;;&lt;/div&gt;&lt;/div&gt;&lt;/div&gt;&lt;/div&gt;&lt;/div&gt;&lt;/div&gt;&lt;/div&gt;&lt;/div&gt;&lt;/div&gt;&lt;/div&gt;&lt;/div&gt;&lt;/div&gt;&lt;/div&gt;&lt;/div&gt;&lt;/div&gt;" style="shape=partialRectangle;connectable=0;fillColor=default;top=0;left=0;bottom=0;right=0;align=left;spacingLeft=6;overflow=hidden;whiteSpace=wrap;html=1;" vertex="1" parent="qw3Gt2nW3UvpiBgJ2Ltj-36">
          <mxGeometry x="30" width="440" height="240" as="geometry">
            <mxRectangle width="440" height="240" as="alternateBounds" />
          </mxGeometry>
        </mxCell>
        <mxCell id="qw3Gt2nW3UvpiBgJ2Ltj-39" value="promotion_dictionary(促销数据字典)" style="shape=table;startSize=30;container=1;collapsible=1;childLayout=tableLayout;fixedRows=1;rowLines=0;fontStyle=1;align=center;resizeLast=1;html=1;labelBackgroundColor=default;fillColor=#d5e8d4;strokeColor=#82b366;" vertex="1" parent="1">
          <mxGeometry x="-8670" y="480" width="470" height="300" as="geometry" />
        </mxCell>
        <mxCell id="qw3Gt2nW3UvpiBgJ2Ltj-40" value="" style="shape=tableRow;horizontal=0;startSize=0;swimlaneHead=0;swimlaneBody=0;fillColor=none;collapsible=0;dropTarget=0;points=[[0,0.5],[1,0.5]];portConstraint=eastwest;top=0;left=0;right=0;bottom=1;" vertex="1" parent="qw3Gt2nW3UvpiBgJ2Ltj-39">
          <mxGeometry y="30" width="470" height="30" as="geometry" />
        </mxCell>
        <mxCell id="qw3Gt2nW3UvpiBgJ2Ltj-41" value="PK" style="shape=partialRectangle;connectable=0;fillColor=none;top=0;left=0;bottom=0;right=0;fontStyle=1;overflow=hidden;whiteSpace=wrap;html=1;" vertex="1" parent="qw3Gt2nW3UvpiBgJ2Ltj-40">
          <mxGeometry width="30" height="30" as="geometry">
            <mxRectangle width="30" height="30" as="alternateBounds" />
          </mxGeometry>
        </mxCell>
        <mxCell id="qw3Gt2nW3UvpiBgJ2Ltj-42" value="`ID` bigint(20) NOT NULL AUTO_INCREMENT COMMENT &#39;自增ID&#39;" style="shape=partialRectangle;connectable=0;fillColor=none;top=0;left=0;bottom=0;right=0;align=left;spacingLeft=6;fontStyle=5;overflow=hidden;whiteSpace=wrap;html=1;" vertex="1" parent="qw3Gt2nW3UvpiBgJ2Ltj-40">
          <mxGeometry x="30" width="440" height="30" as="geometry">
            <mxRectangle width="440" height="30" as="alternateBounds" />
          </mxGeometry>
        </mxCell>
        <mxCell id="qw3Gt2nW3UvpiBgJ2Ltj-43" value="" style="shape=tableRow;horizontal=0;startSize=0;swimlaneHead=0;swimlaneBody=0;fillColor=none;collapsible=0;dropTarget=0;points=[[0,0.5],[1,0.5]];portConstraint=eastwest;top=0;left=0;right=0;bottom=0;" vertex="1" parent="qw3Gt2nW3UvpiBgJ2Ltj-39">
          <mxGeometry y="60" width="470" height="240" as="geometry" />
        </mxCell>
        <mxCell id="qw3Gt2nW3UvpiBgJ2Ltj-44" value="" style="shape=partialRectangle;connectable=0;fillColor=none;top=0;left=0;bottom=0;right=0;editable=1;overflow=hidden;whiteSpace=wrap;html=1;" vertex="1" parent="qw3Gt2nW3UvpiBgJ2Ltj-43">
          <mxGeometry width="30" height="240" as="geometry">
            <mxRectangle width="30" height="240" as="alternateBounds" />
          </mxGeometry>
        </mxCell>
        <mxCell id="qw3Gt2nW3UvpiBgJ2Ltj-45" value="&lt;div style=&quot;line-height: 130%;&quot;&gt;&lt;div style=&quot;line-height: 130%;&quot;&gt;&lt;div style=&quot;line-height: 130%;&quot;&gt;&lt;div style=&quot;line-height: 130%;&quot;&gt;&lt;div style=&quot;line-height: 130%;&quot;&gt;&lt;div style=&quot;line-height: 130%;&quot;&gt;&lt;div style=&quot;line-height: 130%;&quot;&gt;&lt;div data-docx-has-block-data=&quot;false&quot; data-page-id=&quot;YLrPdt7Foo4dSDxoeuHca6s7nCh&quot;&gt;&lt;div class=&quot;old-record-id-FmYydZvrjogUZuxv6E2cjADqneS&quot; style=&quot;&quot;&gt;&lt;div class=&quot;old-record-id-FmYydZvrjogUZuxv6E2cjADqneS&quot;&gt;&lt;div class=&quot;old-record-id-FmYydZvrjogUZuxv6E2cjADqneS&quot;&gt;&lt;div class=&quot;old-record-id-FmYydZvrjogUZuxv6E2cjADqneS&quot;&gt;&lt;div class=&quot;old-record-id-FmYydZvrjogUZuxv6E2cjADqneS&quot;&gt;&lt;div class=&quot;old-record-id-FmYydZvrjogUZuxv6E2cjADqneS&quot;&gt;&lt;div class=&quot;old-record-id-FmYydZvrjogUZuxv6E2cjADqneS&quot;&gt;&lt;div class=&quot;old-record-id-FmYydZvrjogUZuxv6E2cjADqneS&quot;&gt;&lt;div class=&quot;old-record-id-FmYydZvrjogUZuxv6E2cjADqneS&quot;&gt;&lt;div class=&quot;old-record-id-FmYydZvrjogUZuxv6E2cjADqneS&quot;&gt;&lt;div class=&quot;old-record-id-FmYydZvrjogUZuxv6E2cjADqneS&quot;&gt;&lt;div class=&quot;old-record-id-FmYydZvrjogUZuxv6E2cjADqneS&quot;&gt;&lt;div class=&quot;old-record-id-FmYydZvrjogUZuxv6E2cjADqneS&quot;&gt;&lt;div class=&quot;old-record-id-FmYydZvrjogUZuxv6E2cjADqneS&quot;&gt;CREATE TABLE `promotion_dictionary` (&lt;/div&gt;&lt;div class=&quot;old-record-id-FmYydZvrjogUZuxv6E2cjADqneS&quot;&gt;&amp;nbsp; `id` int(20) NOT NULL AUTO_INCREMENT COMMENT &#39;主键&#39;,&lt;/div&gt;&lt;div class=&quot;old-record-id-FmYydZvrjogUZuxv6E2cjADqneS&quot;&gt;&amp;nbsp; `status` int(4) unsigned DEFAULT &#39;1&#39; COMMENT &#39;状态 1有效 0&#39;,&lt;/div&gt;&lt;div class=&quot;old-record-id-FmYydZvrjogUZuxv6E2cjADqneS&quot;&gt;&amp;nbsp; `remark` varchar(2000) DEFAULT NULL,&lt;/div&gt;&lt;div class=&quot;old-record-id-FmYydZvrjogUZuxv6E2cjADqneS&quot;&gt;&amp;nbsp; `creator_id` int(20) DEFAULT NULL COMMENT &#39;创建人ID&#39;,&lt;/div&gt;&lt;div class=&quot;old-record-id-FmYydZvrjogUZuxv6E2cjADqneS&quot;&gt;&amp;nbsp; `create_time` datetime DEFAULT NULL COMMENT &#39;创建时间&#39;,&lt;/div&gt;&lt;div class=&quot;old-record-id-FmYydZvrjogUZuxv6E2cjADqneS&quot;&gt;&amp;nbsp; `modify_time` datetime DEFAULT NULL ON UPDATE CURRENT_TIMESTAMP COMMENT &#39;最后修改时间&#39;,&lt;/div&gt;&lt;div class=&quot;old-record-id-FmYydZvrjogUZuxv6E2cjADqneS&quot;&gt;&amp;nbsp; `modifier_id` int(20) DEFAULT NULL COMMENT &#39;最后修改人&#39;,&lt;/div&gt;&lt;div class=&quot;old-record-id-FmYydZvrjogUZuxv6E2cjADqneS&quot;&gt;&amp;nbsp; `code` varchar(100) DEFAULT NULL COMMENT &#39;编码&#39;,&lt;/div&gt;&lt;div class=&quot;old-record-id-FmYydZvrjogUZuxv6E2cjADqneS&quot;&gt;&amp;nbsp; `name` varchar(200) DEFAULT NULL COMMENT &#39;名称&#39;,&lt;/div&gt;&lt;div class=&quot;old-record-id-FmYydZvrjogUZuxv6E2cjADqneS&quot;&gt;&amp;nbsp; `deleted` int(4) DEFAULT &#39;0&#39; COMMENT &#39;删除&#39;,&lt;/div&gt;&lt;div class=&quot;old-record-id-FmYydZvrjogUZuxv6E2cjADqneS&quot;&gt;&amp;nbsp; `group_type` varchar(200) DEFAULT NULL COMMENT &#39;分组(CARDTYPE,CATEGORY,DEPT,FLAG,OPTION,PAYTYPE,STORE)&#39;,&lt;/div&gt;&lt;div class=&quot;old-record-id-FmYydZvrjogUZuxv6E2cjADqneS&quot;&gt;&amp;nbsp; `enname` varchar(200) DEFAULT NULL COMMENT &#39;英文名称&#39;,&lt;/div&gt;&lt;div class=&quot;old-record-id-FmYydZvrjogUZuxv6E2cjADqneS&quot;&gt;&amp;nbsp; `pid` int(20) DEFAULT NULL COMMENT &#39;父id&#39;,&lt;/div&gt;&lt;div class=&quot;old-record-id-FmYydZvrjogUZuxv6E2cjADqneS&quot;&gt;&amp;nbsp; `order_num` int(10) DEFAULT NULL COMMENT &#39;排序字段&#39;,&lt;/div&gt;&lt;div class=&quot;old-record-id-FmYydZvrjogUZuxv6E2cjADqneS&quot;&gt;&amp;nbsp; `syn_id` int(10) DEFAULT NULL COMMENT &#39;同步数据之前的ID&#39;,&lt;/div&gt;&lt;div class=&quot;old-record-id-FmYydZvrjogUZuxv6E2cjADqneS&quot;&gt;&amp;nbsp; `syn_version` int(10) DEFAULT &#39;0&#39; COMMENT &#39;同步数据的版本号&#39;,&lt;/div&gt;&lt;div class=&quot;old-record-id-FmYydZvrjogUZuxv6E2cjADqneS&quot;&gt;&amp;nbsp; `dic_value` varchar(2000) DEFAULT NULL COMMENT &#39;字典值&#39;,&lt;/div&gt;&lt;div class=&quot;old-record-id-FmYydZvrjogUZuxv6E2cjADqneS&quot;&gt;&amp;nbsp; PRIMARY KEY (`id`),&lt;/div&gt;&lt;div class=&quot;old-record-id-FmYydZvrjogUZuxv6E2cjADqneS&quot;&gt;&amp;nbsp; UNIQUE KEY `unq_code_type` (`code`,`group_type`) USING BTREE,&lt;/div&gt;&lt;div class=&quot;old-record-id-FmYydZvrjogUZuxv6E2cjADqneS&quot;&gt;&amp;nbsp; KEY `index_group_pid` (`group_type`,`pid`) USING HASH&lt;/div&gt;&lt;div class=&quot;old-record-id-FmYydZvrjogUZuxv6E2cjADqneS&quot;&gt;) ENGINE=InnoDB AUTO_INCREMENT=99931572 DEFAULT CHARSET=utf8mb4 COMMENT=&#39;促销数据字典表 option类的enname 不能变,变了要和前端说&#39;;&lt;/div&gt;&lt;/div&gt;&lt;/div&gt;&lt;/div&gt;&lt;/div&gt;&lt;/div&gt;&lt;/div&gt;&lt;/div&gt;&lt;/div&gt;&lt;/div&gt;&lt;/div&gt;&lt;/div&gt;&lt;/div&gt;&lt;/div&gt;&lt;/div&gt;&lt;/div&gt;&lt;/div&gt;&lt;/div&gt;&lt;/div&gt;&lt;/div&gt;&lt;/div&gt;&lt;/div&gt;" style="shape=partialRectangle;connectable=0;fillColor=default;top=0;left=0;bottom=0;right=0;align=left;spacingLeft=6;overflow=hidden;whiteSpace=wrap;html=1;" vertex="1" parent="qw3Gt2nW3UvpiBgJ2Ltj-43">
          <mxGeometry x="30" width="440" height="240" as="geometry">
            <mxRectangle width="440" height="240" as="alternateBounds" />
          </mxGeometry>
        </mxCell>
        <mxCell id="qw3Gt2nW3UvpiBgJ2Ltj-46" style="edgeStyle=orthogonalEdgeStyle;rounded=0;orthogonalLoop=1;jettySize=auto;html=1;" edge="1" parent="1" source="qw3Gt2nW3UvpiBgJ2Ltj-36" target="qw3Gt2nW3UvpiBgJ2Ltj-43">
          <mxGeometry relative="1" as="geometry" />
        </mxCell>
        <mxCell id="qw3Gt2nW3UvpiBgJ2Ltj-47" value="entity_code" style="edgeLabel;html=1;align=center;verticalAlign=middle;resizable=0;points=[];" vertex="1" connectable="0" parent="qw3Gt2nW3UvpiBgJ2Ltj-46">
          <mxGeometry x="-0.7362" y="-3" relative="1" as="geometry">
            <mxPoint x="1" as="offset" />
          </mxGeometry>
        </mxCell>
        <mxCell id="qw3Gt2nW3UvpiBgJ2Ltj-48" value="code" style="edgeLabel;html=1;align=center;verticalAlign=middle;resizable=0;points=[];" vertex="1" connectable="0" parent="qw3Gt2nW3UvpiBgJ2Ltj-46">
          <mxGeometry x="0.787" y="-2" relative="1" as="geometry">
            <mxPoint as="offset" />
          </mxGeometry>
        </mxCell>
        <mxCell id="qw3Gt2nW3UvpiBgJ2Ltj-52" value="&lt;span style=&quot;background-color: rgb(213, 232, 212);&quot;&gt;promotion_scope（促销范围表）&lt;/span&gt;" style="shape=table;startSize=30;container=1;collapsible=1;childLayout=tableLayout;fixedRows=1;rowLines=0;fontStyle=1;align=center;resizeLast=1;html=1;labelBackgroundColor=default;fillColor=#d5e8d4;strokeColor=#82b366;" vertex="1" parent="1">
          <mxGeometry x="-7100" y="1040" width="470" height="300" as="geometry" />
        </mxCell>
        <mxCell id="qw3Gt2nW3UvpiBgJ2Ltj-53" value="" style="shape=tableRow;horizontal=0;startSize=0;swimlaneHead=0;swimlaneBody=0;fillColor=none;collapsible=0;dropTarget=0;points=[[0,0.5],[1,0.5]];portConstraint=eastwest;top=0;left=0;right=0;bottom=1;" vertex="1" parent="qw3Gt2nW3UvpiBgJ2Ltj-52">
          <mxGeometry y="30" width="470" height="30" as="geometry" />
        </mxCell>
        <mxCell id="qw3Gt2nW3UvpiBgJ2Ltj-54" value="PK" style="shape=partialRectangle;connectable=0;fillColor=none;top=0;left=0;bottom=0;right=0;fontStyle=1;overflow=hidden;whiteSpace=wrap;html=1;" vertex="1" parent="qw3Gt2nW3UvpiBgJ2Ltj-53">
          <mxGeometry width="30" height="30" as="geometry">
            <mxRectangle width="30" height="30" as="alternateBounds" />
          </mxGeometry>
        </mxCell>
        <mxCell id="qw3Gt2nW3UvpiBgJ2Ltj-55" value="`ID` bigint(20) NOT NULL AUTO_INCREMENT COMMENT &#39;自增ID&#39;" style="shape=partialRectangle;connectable=0;fillColor=none;top=0;left=0;bottom=0;right=0;align=left;spacingLeft=6;fontStyle=5;overflow=hidden;whiteSpace=wrap;html=1;" vertex="1" parent="qw3Gt2nW3UvpiBgJ2Ltj-53">
          <mxGeometry x="30" width="440" height="30" as="geometry">
            <mxRectangle width="440" height="30" as="alternateBounds" />
          </mxGeometry>
        </mxCell>
        <mxCell id="qw3Gt2nW3UvpiBgJ2Ltj-56" value="" style="shape=tableRow;horizontal=0;startSize=0;swimlaneHead=0;swimlaneBody=0;fillColor=none;collapsible=0;dropTarget=0;points=[[0,0.5],[1,0.5]];portConstraint=eastwest;top=0;left=0;right=0;bottom=0;" vertex="1" parent="qw3Gt2nW3UvpiBgJ2Ltj-52">
          <mxGeometry y="60" width="470" height="240" as="geometry" />
        </mxCell>
        <mxCell id="qw3Gt2nW3UvpiBgJ2Ltj-57" value="" style="shape=partialRectangle;connectable=0;fillColor=none;top=0;left=0;bottom=0;right=0;editable=1;overflow=hidden;whiteSpace=wrap;html=1;" vertex="1" parent="qw3Gt2nW3UvpiBgJ2Ltj-56">
          <mxGeometry width="30" height="240" as="geometry">
            <mxRectangle width="30" height="240" as="alternateBounds" />
          </mxGeometry>
        </mxCell>
        <mxCell id="qw3Gt2nW3UvpiBgJ2Ltj-58" value="&lt;div style=&quot;line-height: 130%;&quot;&gt;&lt;div style=&quot;line-height: 130%;&quot;&gt;&lt;div style=&quot;line-height: 130%;&quot;&gt;&lt;div style=&quot;line-height: 130%;&quot;&gt;&lt;div style=&quot;line-height: 130%;&quot;&gt;&lt;div style=&quot;line-height: 130%;&quot;&gt;&lt;div style=&quot;line-height: 130%;&quot;&gt;&lt;div data-docx-has-block-data=&quot;false&quot; data-page-id=&quot;YLrPdt7Foo4dSDxoeuHca6s7nCh&quot;&gt;&lt;div class=&quot;old-record-id-FmYydZvrjogUZuxv6E2cjADqneS&quot; style=&quot;&quot;&gt;&lt;div class=&quot;old-record-id-FmYydZvrjogUZuxv6E2cjADqneS&quot;&gt;&lt;div class=&quot;old-record-id-FmYydZvrjogUZuxv6E2cjADqneS&quot;&gt;&lt;div class=&quot;old-record-id-FmYydZvrjogUZuxv6E2cjADqneS&quot;&gt;&lt;div class=&quot;old-record-id-FmYydZvrjogUZuxv6E2cjADqneS&quot;&gt;&lt;div class=&quot;old-record-id-FmYydZvrjogUZuxv6E2cjADqneS&quot;&gt;CREATE TABLE `promotion_scope` (&lt;/div&gt;&lt;div class=&quot;old-record-id-FmYydZvrjogUZuxv6E2cjADqneS&quot;&gt;&amp;nbsp; `id` int(20) NOT NULL AUTO_INCREMENT COMMENT &#39;主键&#39;,&lt;/div&gt;&lt;div class=&quot;old-record-id-FmYydZvrjogUZuxv6E2cjADqneS&quot;&gt;&amp;nbsp; `activity_id` int(20) NOT NULL COMMENT &#39;活动ID&#39;,&lt;/div&gt;&lt;div class=&quot;old-record-id-FmYydZvrjogUZuxv6E2cjADqneS&quot;&gt;&amp;nbsp; `scope_item` varchar(100) NOT NULL DEFAULT &#39;&#39; COMMENT &#39;范围项目（code码）&#39;,&lt;/div&gt;&lt;div class=&quot;old-record-id-FmYydZvrjogUZuxv6E2cjADqneS&quot;&gt;&amp;nbsp; `scope_name` varchar(200) DEFAULT &#39;&#39; COMMENT &#39;名称&#39;,&lt;/div&gt;&lt;div class=&quot;old-record-id-FmYydZvrjogUZuxv6E2cjADqneS&quot;&gt;&amp;nbsp; `scope_type` int(4) unsigned NOT NULL DEFAULT &#39;1&#39; COMMENT &#39;范围类型（1：品类，2：sku，3：供应商）&#39;,&lt;/div&gt;&lt;div class=&quot;old-record-id-FmYydZvrjogUZuxv6E2cjADqneS&quot;&gt;&amp;nbsp; `include` int(4) DEFAULT &#39;1&#39; COMMENT &#39;1包含 2排他&#39;,&lt;/div&gt;&lt;div class=&quot;old-record-id-FmYydZvrjogUZuxv6E2cjADqneS&quot;&gt;&amp;nbsp; `status` int(4) DEFAULT &#39;1&#39; COMMENT &#39;1：有效，0：无效&#39;,&lt;/div&gt;&lt;div class=&quot;old-record-id-FmYydZvrjogUZuxv6E2cjADqneS&quot;&gt;&amp;nbsp; `deleted` int(4) DEFAULT &#39;0&#39; COMMENT &#39;删除&#39;,&lt;/div&gt;&lt;div class=&quot;old-record-id-FmYydZvrjogUZuxv6E2cjADqneS&quot;&gt;&amp;nbsp; `remark` varchar(2000) DEFAULT NULL,&lt;/div&gt;&lt;div class=&quot;old-record-id-FmYydZvrjogUZuxv6E2cjADqneS&quot;&gt;&amp;nbsp; `creator_id` int(20) DEFAULT NULL COMMENT &#39;创建人ID&#39;,&lt;/div&gt;&lt;div class=&quot;old-record-id-FmYydZvrjogUZuxv6E2cjADqneS&quot;&gt;&amp;nbsp; `create_time` datetime DEFAULT NULL COMMENT &#39;创建时间&#39;,&lt;/div&gt;&lt;div class=&quot;old-record-id-FmYydZvrjogUZuxv6E2cjADqneS&quot;&gt;&amp;nbsp; `modify_time` datetime DEFAULT NULL COMMENT &#39;最后修改时间&#39;,&lt;/div&gt;&lt;div class=&quot;old-record-id-FmYydZvrjogUZuxv6E2cjADqneS&quot;&gt;&amp;nbsp; `modifier_id` int(20) DEFAULT NULL COMMENT &#39;最后修改人&#39;,&lt;/div&gt;&lt;div class=&quot;old-record-id-FmYydZvrjogUZuxv6E2cjADqneS&quot;&gt;&amp;nbsp; `retail_type` tinyint(4) DEFAULT &#39;0&#39; COMMENT &#39;分销类型:0无,1估计金额,2按比例&#39;,&lt;/div&gt;&lt;div class=&quot;old-record-id-FmYydZvrjogUZuxv6E2cjADqneS&quot;&gt;&amp;nbsp; `retail_num` decimal(5,2) DEFAULT NULL COMMENT &#39;分销比例或金额&#39;,&lt;/div&gt;&lt;div class=&quot;old-record-id-FmYydZvrjogUZuxv6E2cjADqneS&quot;&gt;&amp;nbsp; PRIMARY KEY (`id`),&lt;/div&gt;&lt;div class=&quot;old-record-id-FmYydZvrjogUZuxv6E2cjADqneS&quot;&gt;&amp;nbsp; UNIQUE KEY `unq_activityid_item` (`activity_id`,`scope_item`,`scope_type`) USING BTREE,&lt;/div&gt;&lt;div class=&quot;old-record-id-FmYydZvrjogUZuxv6E2cjADqneS&quot;&gt;&amp;nbsp; KEY `idx_scope_item` (`scope_item`),&lt;/div&gt;&lt;div class=&quot;old-record-id-FmYydZvrjogUZuxv6E2cjADqneS&quot;&gt;&amp;nbsp; KEY `actid` (`activity_id`)&lt;/div&gt;&lt;div class=&quot;old-record-id-FmYydZvrjogUZuxv6E2cjADqneS&quot;&gt;) ENGINE=InnoDB AUTO_INCREMENT=13628858 DEFAULT CHARSET=utf8mb4 COMMENT=&#39;促销范围表&#39;;&lt;/div&gt;&lt;/div&gt;&lt;/div&gt;&lt;/div&gt;&lt;/div&gt;&lt;/div&gt;&lt;/div&gt;&lt;/div&gt;&lt;/div&gt;&lt;/div&gt;&lt;/div&gt;&lt;/div&gt;&lt;/div&gt;&lt;/div&gt;" style="shape=partialRectangle;connectable=0;fillColor=default;top=0;left=0;bottom=0;right=0;align=left;spacingLeft=6;overflow=hidden;whiteSpace=wrap;html=1;" vertex="1" parent="qw3Gt2nW3UvpiBgJ2Ltj-56">
          <mxGeometry x="30" width="440" height="240" as="geometry">
            <mxRectangle width="440" height="240" as="alternateBounds" />
          </mxGeometry>
        </mxCell>
        <mxCell id="qw3Gt2nW3UvpiBgJ2Ltj-62" value="&lt;div style=&quot;text-align: left;&quot;&gt;promotion_store_sku_filter(供应商下门店商品过滤表)&lt;br&gt;&lt;/div&gt;" style="shape=table;startSize=30;container=1;collapsible=1;childLayout=tableLayout;fixedRows=1;rowLines=0;fontStyle=1;align=center;resizeLast=1;html=1;labelBackgroundColor=default;fillColor=#d5e8d4;strokeColor=#82b366;" vertex="1" parent="1">
          <mxGeometry x="-7960" y="1040" width="470" height="300" as="geometry" />
        </mxCell>
        <mxCell id="qw3Gt2nW3UvpiBgJ2Ltj-63" value="" style="shape=tableRow;horizontal=0;startSize=0;swimlaneHead=0;swimlaneBody=0;fillColor=none;collapsible=0;dropTarget=0;points=[[0,0.5],[1,0.5]];portConstraint=eastwest;top=0;left=0;right=0;bottom=1;" vertex="1" parent="qw3Gt2nW3UvpiBgJ2Ltj-62">
          <mxGeometry y="30" width="470" height="30" as="geometry" />
        </mxCell>
        <mxCell id="qw3Gt2nW3UvpiBgJ2Ltj-64" value="PK" style="shape=partialRectangle;connectable=0;fillColor=none;top=0;left=0;bottom=0;right=0;fontStyle=1;overflow=hidden;whiteSpace=wrap;html=1;" vertex="1" parent="qw3Gt2nW3UvpiBgJ2Ltj-63">
          <mxGeometry width="30" height="30" as="geometry">
            <mxRectangle width="30" height="30" as="alternateBounds" />
          </mxGeometry>
        </mxCell>
        <mxCell id="qw3Gt2nW3UvpiBgJ2Ltj-65" value="`ID` bigint(20) NOT NULL AUTO_INCREMENT COMMENT &#39;自增ID&#39;" style="shape=partialRectangle;connectable=0;fillColor=none;top=0;left=0;bottom=0;right=0;align=left;spacingLeft=6;fontStyle=5;overflow=hidden;whiteSpace=wrap;html=1;" vertex="1" parent="qw3Gt2nW3UvpiBgJ2Ltj-63">
          <mxGeometry x="30" width="440" height="30" as="geometry">
            <mxRectangle width="440" height="30" as="alternateBounds" />
          </mxGeometry>
        </mxCell>
        <mxCell id="qw3Gt2nW3UvpiBgJ2Ltj-66" value="" style="shape=tableRow;horizontal=0;startSize=0;swimlaneHead=0;swimlaneBody=0;fillColor=none;collapsible=0;dropTarget=0;points=[[0,0.5],[1,0.5]];portConstraint=eastwest;top=0;left=0;right=0;bottom=0;" vertex="1" parent="qw3Gt2nW3UvpiBgJ2Ltj-62">
          <mxGeometry y="60" width="470" height="240" as="geometry" />
        </mxCell>
        <mxCell id="qw3Gt2nW3UvpiBgJ2Ltj-67" value="" style="shape=partialRectangle;connectable=0;fillColor=none;top=0;left=0;bottom=0;right=0;editable=1;overflow=hidden;whiteSpace=wrap;html=1;" vertex="1" parent="qw3Gt2nW3UvpiBgJ2Ltj-66">
          <mxGeometry width="30" height="240" as="geometry">
            <mxRectangle width="30" height="240" as="alternateBounds" />
          </mxGeometry>
        </mxCell>
        <mxCell id="qw3Gt2nW3UvpiBgJ2Ltj-68" value="&lt;div style=&quot;line-height: 130%;&quot;&gt;&lt;div style=&quot;line-height: 130%;&quot;&gt;&lt;div style=&quot;line-height: 130%;&quot;&gt;&lt;div style=&quot;line-height: 130%;&quot;&gt;&lt;div style=&quot;line-height: 130%;&quot;&gt;&lt;div style=&quot;line-height: 130%;&quot;&gt;&lt;div style=&quot;line-height: 130%;&quot;&gt;&lt;div data-docx-has-block-data=&quot;false&quot; data-page-id=&quot;YLrPdt7Foo4dSDxoeuHca6s7nCh&quot;&gt;&lt;div class=&quot;old-record-id-FmYydZvrjogUZuxv6E2cjADqneS&quot; style=&quot;&quot;&gt;&lt;div class=&quot;old-record-id-FmYydZvrjogUZuxv6E2cjADqneS&quot;&gt;&lt;div class=&quot;old-record-id-FmYydZvrjogUZuxv6E2cjADqneS&quot;&gt;&lt;div class=&quot;old-record-id-FmYydZvrjogUZuxv6E2cjADqneS&quot;&gt;&lt;div class=&quot;old-record-id-FmYydZvrjogUZuxv6E2cjADqneS&quot;&gt;&lt;div class=&quot;old-record-id-FmYydZvrjogUZuxv6E2cjADqneS&quot;&gt;&lt;div class=&quot;old-record-id-FmYydZvrjogUZuxv6E2cjADqneS&quot;&gt;&lt;div class=&quot;old-record-id-FmYydZvrjogUZuxv6E2cjADqneS&quot;&gt;&lt;div class=&quot;old-record-id-FmYydZvrjogUZuxv6E2cjADqneS&quot;&gt;&lt;div class=&quot;old-record-id-FmYydZvrjogUZuxv6E2cjADqneS&quot;&gt;&lt;div class=&quot;old-record-id-FmYydZvrjogUZuxv6E2cjADqneS&quot;&gt;CREATE TABLE `promotion_store_sku_filter` (&lt;/div&gt;&lt;div class=&quot;old-record-id-FmYydZvrjogUZuxv6E2cjADqneS&quot;&gt;&amp;nbsp; `id` bigint(20) NOT NULL AUTO_INCREMENT,&lt;/div&gt;&lt;div class=&quot;old-record-id-FmYydZvrjogUZuxv6E2cjADqneS&quot;&gt;&amp;nbsp; `activity_id` bigint(20) DEFAULT NULL COMMENT &#39;活动id&#39;,&lt;/div&gt;&lt;div class=&quot;old-record-id-FmYydZvrjogUZuxv6E2cjADqneS&quot;&gt;&amp;nbsp; `contract_code` varchar(50) DEFAULT NULL COMMENT &#39;合同编码&#39;,&lt;/div&gt;&lt;div class=&quot;old-record-id-FmYydZvrjogUZuxv6E2cjADqneS&quot;&gt;&amp;nbsp; `vendor_code` varchar(15) DEFAULT NULL COMMENT &#39;供应商编码&#39;,&lt;/div&gt;&lt;div class=&quot;old-record-id-FmYydZvrjogUZuxv6E2cjADqneS&quot;&gt;&amp;nbsp; `store_code` varchar(15) DEFAULT NULL COMMENT &#39;门店编码&#39;,&lt;/div&gt;&lt;div class=&quot;old-record-id-FmYydZvrjogUZuxv6E2cjADqneS&quot;&gt;&amp;nbsp; `sku_code` varchar(15) DEFAULT NULL COMMENT &#39;商品编码&#39;,&lt;/div&gt;&lt;div class=&quot;old-record-id-FmYydZvrjogUZuxv6E2cjADqneS&quot;&gt;&amp;nbsp; `create_time` datetime DEFAULT NULL COMMENT &#39;创建时间&#39;,&lt;/div&gt;&lt;div class=&quot;old-record-id-FmYydZvrjogUZuxv6E2cjADqneS&quot;&gt;&amp;nbsp; `modify_time` datetime DEFAULT NULL COMMENT &#39;修改时间&#39;,&lt;/div&gt;&lt;div class=&quot;old-record-id-FmYydZvrjogUZuxv6E2cjADqneS&quot;&gt;&amp;nbsp; `creator_id` bigint(20) DEFAULT NULL COMMENT &#39;创建人&#39;,&lt;/div&gt;&lt;div class=&quot;old-record-id-FmYydZvrjogUZuxv6E2cjADqneS&quot;&gt;&amp;nbsp; `modifier_id` bigint(20) DEFAULT NULL COMMENT &#39;修改人&#39;,&lt;/div&gt;&lt;div class=&quot;old-record-id-FmYydZvrjogUZuxv6E2cjADqneS&quot;&gt;&amp;nbsp; `deleted` int(5) DEFAULT NULL COMMENT &#39;0有效 1删除&#39;,&lt;/div&gt;&lt;div class=&quot;old-record-id-FmYydZvrjogUZuxv6E2cjADqneS&quot;&gt;&amp;nbsp; PRIMARY KEY (`id`),&lt;/div&gt;&lt;div class=&quot;old-record-id-FmYydZvrjogUZuxv6E2cjADqneS&quot;&gt;&amp;nbsp; UNIQUE KEY `unique_act_id_contract_store_sku` (`activity_id`,`contract_code`,`store_code`,`sku_code`) USING BTREE COMMENT &#39;唯一索引&#39;,&lt;/div&gt;&lt;div class=&quot;old-record-id-FmYydZvrjogUZuxv6E2cjADqneS&quot;&gt;&amp;nbsp; KEY `idx_actid_store_sku` (`activity_id`,`sku_code`,`store_code`)&lt;/div&gt;&lt;div class=&quot;old-record-id-FmYydZvrjogUZuxv6E2cjADqneS&quot;&gt;) ENGINE=InnoDB AUTO_INCREMENT=3408903 DEFAULT CHARSET=utf8mb4 COMMENT=&#39;供应商下门店商品过滤&#39;;&lt;/div&gt;&lt;/div&gt;&lt;/div&gt;&lt;/div&gt;&lt;/div&gt;&lt;/div&gt;&lt;/div&gt;&lt;/div&gt;&lt;/div&gt;&lt;/div&gt;&lt;/div&gt;&lt;/div&gt;&lt;/div&gt;&lt;/div&gt;&lt;/div&gt;&lt;/div&gt;&lt;/div&gt;&lt;/div&gt;&lt;/div&gt;" style="shape=partialRectangle;connectable=0;fillColor=default;top=0;left=0;bottom=0;right=0;align=left;spacingLeft=6;overflow=hidden;whiteSpace=wrap;html=1;" vertex="1" parent="qw3Gt2nW3UvpiBgJ2Ltj-66">
          <mxGeometry x="30" width="440" height="240" as="geometry">
            <mxRectangle width="440" height="240" as="alternateBounds" />
          </mxGeometry>
        </mxCell>
        <mxCell id="qw3Gt2nW3UvpiBgJ2Ltj-72" value="&lt;div style=&quot;text-align: left;&quot;&gt;securities_cfg(发券配置表)&lt;br&gt;&lt;/div&gt;" style="shape=table;startSize=30;container=1;collapsible=1;childLayout=tableLayout;fixedRows=1;rowLines=0;fontStyle=1;align=center;resizeLast=1;html=1;labelBackgroundColor=default;fillColor=#d5e8d4;strokeColor=#82b366;" vertex="1" parent="1">
          <mxGeometry x="-8010" y="-70" width="470" height="300" as="geometry" />
        </mxCell>
        <mxCell id="qw3Gt2nW3UvpiBgJ2Ltj-73" value="" style="shape=tableRow;horizontal=0;startSize=0;swimlaneHead=0;swimlaneBody=0;fillColor=none;collapsible=0;dropTarget=0;points=[[0,0.5],[1,0.5]];portConstraint=eastwest;top=0;left=0;right=0;bottom=1;" vertex="1" parent="qw3Gt2nW3UvpiBgJ2Ltj-72">
          <mxGeometry y="30" width="470" height="30" as="geometry" />
        </mxCell>
        <mxCell id="qw3Gt2nW3UvpiBgJ2Ltj-74" value="PK" style="shape=partialRectangle;connectable=0;fillColor=none;top=0;left=0;bottom=0;right=0;fontStyle=1;overflow=hidden;whiteSpace=wrap;html=1;" vertex="1" parent="qw3Gt2nW3UvpiBgJ2Ltj-73">
          <mxGeometry width="30" height="30" as="geometry">
            <mxRectangle width="30" height="30" as="alternateBounds" />
          </mxGeometry>
        </mxCell>
        <mxCell id="qw3Gt2nW3UvpiBgJ2Ltj-75" value="`ID` bigint(20) NOT NULL AUTO_INCREMENT COMMENT &#39;自增ID&#39;" style="shape=partialRectangle;connectable=0;fillColor=none;top=0;left=0;bottom=0;right=0;align=left;spacingLeft=6;fontStyle=5;overflow=hidden;whiteSpace=wrap;html=1;" vertex="1" parent="qw3Gt2nW3UvpiBgJ2Ltj-73">
          <mxGeometry x="30" width="440" height="30" as="geometry">
            <mxRectangle width="440" height="30" as="alternateBounds" />
          </mxGeometry>
        </mxCell>
        <mxCell id="qw3Gt2nW3UvpiBgJ2Ltj-76" value="" style="shape=tableRow;horizontal=0;startSize=0;swimlaneHead=0;swimlaneBody=0;fillColor=none;collapsible=0;dropTarget=0;points=[[0,0.5],[1,0.5]];portConstraint=eastwest;top=0;left=0;right=0;bottom=0;" vertex="1" parent="qw3Gt2nW3UvpiBgJ2Ltj-72">
          <mxGeometry y="60" width="470" height="240" as="geometry" />
        </mxCell>
        <mxCell id="qw3Gt2nW3UvpiBgJ2Ltj-77" value="" style="shape=partialRectangle;connectable=0;fillColor=none;top=0;left=0;bottom=0;right=0;editable=1;overflow=hidden;whiteSpace=wrap;html=1;" vertex="1" parent="qw3Gt2nW3UvpiBgJ2Ltj-76">
          <mxGeometry width="30" height="240" as="geometry">
            <mxRectangle width="30" height="240" as="alternateBounds" />
          </mxGeometry>
        </mxCell>
        <mxCell id="qw3Gt2nW3UvpiBgJ2Ltj-78" value="&lt;div style=&quot;line-height: 130%;&quot;&gt;&lt;div style=&quot;line-height: 130%;&quot;&gt;&lt;div style=&quot;line-height: 130%;&quot;&gt;&lt;div style=&quot;line-height: 130%;&quot;&gt;&lt;div style=&quot;line-height: 130%;&quot;&gt;&lt;div style=&quot;line-height: 130%;&quot;&gt;&lt;div style=&quot;line-height: 130%;&quot;&gt;&lt;div data-docx-has-block-data=&quot;false&quot; data-page-id=&quot;YLrPdt7Foo4dSDxoeuHca6s7nCh&quot;&gt;&lt;div class=&quot;old-record-id-FmYydZvrjogUZuxv6E2cjADqneS&quot; style=&quot;&quot;&gt;&lt;div class=&quot;old-record-id-FmYydZvrjogUZuxv6E2cjADqneS&quot;&gt;&lt;div class=&quot;old-record-id-FmYydZvrjogUZuxv6E2cjADqneS&quot;&gt;&lt;div class=&quot;old-record-id-FmYydZvrjogUZuxv6E2cjADqneS&quot;&gt;&lt;div class=&quot;old-record-id-FmYydZvrjogUZuxv6E2cjADqneS&quot;&gt;&lt;div class=&quot;old-record-id-FmYydZvrjogUZuxv6E2cjADqneS&quot;&gt;&lt;div class=&quot;old-record-id-FmYydZvrjogUZuxv6E2cjADqneS&quot;&gt;&lt;div class=&quot;old-record-id-FmYydZvrjogUZuxv6E2cjADqneS&quot;&gt;&lt;div class=&quot;old-record-id-FmYydZvrjogUZuxv6E2cjADqneS&quot;&gt;&lt;div class=&quot;old-record-id-FmYydZvrjogUZuxv6E2cjADqneS&quot;&gt;&lt;div class=&quot;old-record-id-FmYydZvrjogUZuxv6E2cjADqneS&quot;&gt;&lt;div class=&quot;old-record-id-FmYydZvrjogUZuxv6E2cjADqneS&quot;&gt;&lt;div class=&quot;old-record-id-FmYydZvrjogUZuxv6E2cjADqneS&quot;&gt;&lt;div class=&quot;old-record-id-FmYydZvrjogUZuxv6E2cjADqneS&quot;&gt;&lt;div class=&quot;old-record-id-FmYydZvrjogUZuxv6E2cjADqneS&quot;&gt;&lt;div class=&quot;old-record-id-FmYydZvrjogUZuxv6E2cjADqneS&quot;&gt;&lt;div class=&quot;old-record-id-FmYydZvrjogUZuxv6E2cjADqneS&quot;&gt;&lt;div class=&quot;old-record-id-FmYydZvrjogUZuxv6E2cjADqneS&quot;&gt;&lt;div class=&quot;old-record-id-FmYydZvrjogUZuxv6E2cjADqneS&quot;&gt;&lt;div class=&quot;old-record-id-FmYydZvrjogUZuxv6E2cjADqneS&quot;&gt;CREATE TABLE `securities_cfg` (&lt;/div&gt;&lt;div class=&quot;old-record-id-FmYydZvrjogUZuxv6E2cjADqneS&quot;&gt;&amp;nbsp; `id` int(20) NOT NULL AUTO_INCREMENT COMMENT &#39;主键&#39;,&lt;/div&gt;&lt;div class=&quot;old-record-id-FmYydZvrjogUZuxv6E2cjADqneS&quot;&gt;&amp;nbsp; `creator_id` int(20) DEFAULT NULL COMMENT &#39;创建人ID&#39;,&lt;/div&gt;&lt;div class=&quot;old-record-id-FmYydZvrjogUZuxv6E2cjADqneS&quot;&gt;&amp;nbsp; `create_time` datetime DEFAULT NULL COMMENT &#39;创建时间&#39;,&lt;/div&gt;&lt;div class=&quot;old-record-id-FmYydZvrjogUZuxv6E2cjADqneS&quot;&gt;&amp;nbsp; `modify_time` datetime DEFAULT NULL COMMENT &#39;最后修改时间&#39;,&lt;/div&gt;&lt;div class=&quot;old-record-id-FmYydZvrjogUZuxv6E2cjADqneS&quot;&gt;&amp;nbsp; `modifier_id` int(20) DEFAULT NULL COMMENT &#39;最后修改人&#39;,&lt;/div&gt;&lt;div class=&quot;old-record-id-FmYydZvrjogUZuxv6E2cjADqneS&quot;&gt;&amp;nbsp; `deleted` int(4) DEFAULT &#39;0&#39; COMMENT &#39;删除（0：未删除，1：已删除）&#39;,&lt;/div&gt;&lt;div class=&quot;old-record-id-FmYydZvrjogUZuxv6E2cjADqneS&quot;&gt;&amp;nbsp; `aggregateParValue` varchar(100) DEFAULT NULL COMMENT &#39;活动总预算&#39;,&lt;/div&gt;&lt;div class=&quot;old-record-id-FmYydZvrjogUZuxv6E2cjADqneS&quot;&gt;&amp;nbsp; `conditionalSum` varchar(100) DEFAULT NULL COMMENT &#39;条件金额&#39;,&lt;/div&gt;&lt;div class=&quot;old-record-id-FmYydZvrjogUZuxv6E2cjADqneS&quot;&gt;&amp;nbsp; `ticketSumPercent` varchar(100) DEFAULT NULL COMMENT &#39;小票金额百分数&#39;,&lt;/div&gt;&lt;div class=&quot;old-record-id-FmYydZvrjogUZuxv6E2cjADqneS&quot;&gt;&amp;nbsp; `activity_id` varchar(100) DEFAULT NULL COMMENT &#39;活动id&#39;,&lt;/div&gt;&lt;div class=&quot;old-record-id-FmYydZvrjogUZuxv6E2cjADqneS&quot;&gt;&amp;nbsp; `ableSend` int(4) DEFAULT NULL COMMENT &#39;是否允许超发&#39;,&lt;/div&gt;&lt;div class=&quot;old-record-id-FmYydZvrjogUZuxv6E2cjADqneS&quot;&gt;&amp;nbsp; `send_time_start` datetime DEFAULT NULL COMMENT &#39;发券活动开始时间&#39;,&lt;/div&gt;&lt;div class=&quot;old-record-id-FmYydZvrjogUZuxv6E2cjADqneS&quot;&gt;&amp;nbsp; `send_time_end` datetime DEFAULT NULL COMMENT &#39;发券活动结束时间&#39;,&lt;/div&gt;&lt;div class=&quot;old-record-id-FmYydZvrjogUZuxv6E2cjADqneS&quot;&gt;&amp;nbsp; `send_mechanism` int(4) DEFAULT NULL COMMENT &#39;发券机制（0循环1阶梯）&#39;,&lt;/div&gt;&lt;div class=&quot;old-record-id-FmYydZvrjogUZuxv6E2cjADqneS&quot;&gt;&amp;nbsp; `send_content_json` varchar(2000) DEFAULT NULL COMMENT &#39;发券内容json&#39;,&lt;/div&gt;&lt;div class=&quot;old-record-id-FmYydZvrjogUZuxv6E2cjADqneS&quot;&gt;&amp;nbsp; `source_of_send_coupon` int(4) DEFAULT NULL COMMENT &#39;发券来源&amp;nbsp; &amp;nbsp;1 基于交易,&amp;nbsp; &amp;nbsp; &amp;nbsp;2 基于事件 3 外部兑换&#39;,&lt;/div&gt;&lt;div class=&quot;old-record-id-FmYydZvrjogUZuxv6E2cjADqneS&quot;&gt;&amp;nbsp; `send_coupon_event` int(4) DEFAULT NULL COMMENT &#39;发券事件 1 会员注册&amp;nbsp; 2 家装签约 3 标签 当发券来源基于事件时存在&#39;,&lt;/div&gt;&lt;div class=&quot;old-record-id-FmYydZvrjogUZuxv6E2cjADqneS&quot;&gt;&amp;nbsp; `multi_vendor` int(11) DEFAULT &#39;0&#39; COMMENT &#39;品牌联盟 0-无&amp;nbsp; , 1-是&#39;,&lt;/div&gt;&lt;div class=&quot;old-record-id-FmYydZvrjogUZuxv6E2cjADqneS&quot;&gt;&amp;nbsp; PRIMARY KEY (`id`),&lt;/div&gt;&lt;div class=&quot;old-record-id-FmYydZvrjogUZuxv6E2cjADqneS&quot;&gt;&amp;nbsp; KEY `idxactivity_id` (`activity_id`) USING BTREE&lt;/div&gt;&lt;div class=&quot;old-record-id-FmYydZvrjogUZuxv6E2cjADqneS&quot;&gt;) ENGINE=InnoDB AUTO_INCREMENT=1673 DEFAULT CHARSET=utf8mb4;&lt;/div&gt;&lt;/div&gt;&lt;/div&gt;&lt;/div&gt;&lt;/div&gt;&lt;/div&gt;&lt;/div&gt;&lt;/div&gt;&lt;/div&gt;&lt;/div&gt;&lt;/div&gt;&lt;/div&gt;&lt;/div&gt;&lt;/div&gt;&lt;/div&gt;&lt;/div&gt;&lt;/div&gt;&lt;/div&gt;&lt;/div&gt;&lt;/div&gt;&lt;/div&gt;&lt;/div&gt;&lt;/div&gt;&lt;/div&gt;&lt;/div&gt;&lt;/div&gt;&lt;/div&gt;&lt;/div&gt;" style="shape=partialRectangle;connectable=0;fillColor=default;top=0;left=0;bottom=0;right=0;align=left;spacingLeft=6;overflow=hidden;whiteSpace=wrap;html=1;" vertex="1" parent="qw3Gt2nW3UvpiBgJ2Ltj-76">
          <mxGeometry x="30" width="440" height="240" as="geometry">
            <mxRectangle width="440" height="240" as="alternateBounds" />
          </mxGeometry>
        </mxCell>
        <mxCell id="qw3Gt2nW3UvpiBgJ2Ltj-86" style="edgeStyle=orthogonalEdgeStyle;rounded=0;orthogonalLoop=1;jettySize=auto;html=1;entryX=1;entryY=0.5;entryDx=0;entryDy=0;" edge="1" parent="1" source="qw3Gt2nW3UvpiBgJ2Ltj-56" target="qw3Gt2nW3UvpiBgJ2Ltj-66">
          <mxGeometry relative="1" as="geometry" />
        </mxCell>
        <mxCell id="qw3Gt2nW3UvpiBgJ2Ltj-87" value="&lt;div style=&quot;text-align: left;&quot;&gt;couponset_activity_rel(活动套券关系)&lt;br&gt;&lt;/div&gt;" style="shape=table;startSize=30;container=1;collapsible=1;childLayout=tableLayout;fixedRows=1;rowLines=0;fontStyle=1;align=center;resizeLast=1;html=1;labelBackgroundColor=default;fillColor=#d5e8d4;strokeColor=#82b366;" vertex="1" parent="1">
          <mxGeometry x="-5800" y="1180" width="470" height="300" as="geometry" />
        </mxCell>
        <mxCell id="qw3Gt2nW3UvpiBgJ2Ltj-88" value="" style="shape=tableRow;horizontal=0;startSize=0;swimlaneHead=0;swimlaneBody=0;fillColor=none;collapsible=0;dropTarget=0;points=[[0,0.5],[1,0.5]];portConstraint=eastwest;top=0;left=0;right=0;bottom=1;" vertex="1" parent="qw3Gt2nW3UvpiBgJ2Ltj-87">
          <mxGeometry y="30" width="470" height="30" as="geometry" />
        </mxCell>
        <mxCell id="qw3Gt2nW3UvpiBgJ2Ltj-89" value="PK" style="shape=partialRectangle;connectable=0;fillColor=none;top=0;left=0;bottom=0;right=0;fontStyle=1;overflow=hidden;whiteSpace=wrap;html=1;" vertex="1" parent="qw3Gt2nW3UvpiBgJ2Ltj-88">
          <mxGeometry width="30" height="30" as="geometry">
            <mxRectangle width="30" height="30" as="alternateBounds" />
          </mxGeometry>
        </mxCell>
        <mxCell id="qw3Gt2nW3UvpiBgJ2Ltj-90" value="`ID` bigint(20) NOT NULL AUTO_INCREMENT COMMENT &#39;自增ID&#39;" style="shape=partialRectangle;connectable=0;fillColor=none;top=0;left=0;bottom=0;right=0;align=left;spacingLeft=6;fontStyle=5;overflow=hidden;whiteSpace=wrap;html=1;" vertex="1" parent="qw3Gt2nW3UvpiBgJ2Ltj-88">
          <mxGeometry x="30" width="440" height="30" as="geometry">
            <mxRectangle width="440" height="30" as="alternateBounds" />
          </mxGeometry>
        </mxCell>
        <mxCell id="qw3Gt2nW3UvpiBgJ2Ltj-91" value="" style="shape=tableRow;horizontal=0;startSize=0;swimlaneHead=0;swimlaneBody=0;fillColor=none;collapsible=0;dropTarget=0;points=[[0,0.5],[1,0.5]];portConstraint=eastwest;top=0;left=0;right=0;bottom=0;" vertex="1" parent="qw3Gt2nW3UvpiBgJ2Ltj-87">
          <mxGeometry y="60" width="470" height="240" as="geometry" />
        </mxCell>
        <mxCell id="qw3Gt2nW3UvpiBgJ2Ltj-92" value="" style="shape=partialRectangle;connectable=0;fillColor=none;top=0;left=0;bottom=0;right=0;editable=1;overflow=hidden;whiteSpace=wrap;html=1;" vertex="1" parent="qw3Gt2nW3UvpiBgJ2Ltj-91">
          <mxGeometry width="30" height="240" as="geometry">
            <mxRectangle width="30" height="240" as="alternateBounds" />
          </mxGeometry>
        </mxCell>
        <mxCell id="qw3Gt2nW3UvpiBgJ2Ltj-93" value="&lt;div style=&quot;line-height: 130%;&quot;&gt;&lt;div style=&quot;line-height: 130%;&quot;&gt;&lt;div style=&quot;line-height: 130%;&quot;&gt;&lt;div style=&quot;line-height: 130%;&quot;&gt;&lt;div style=&quot;line-height: 130%;&quot;&gt;&lt;div style=&quot;line-height: 130%;&quot;&gt;&lt;div style=&quot;line-height: 130%;&quot;&gt;&lt;div data-docx-has-block-data=&quot;false&quot; data-page-id=&quot;YLrPdt7Foo4dSDxoeuHca6s7nCh&quot;&gt;&lt;div class=&quot;old-record-id-FmYydZvrjogUZuxv6E2cjADqneS&quot; style=&quot;&quot;&gt;&lt;div class=&quot;old-record-id-FmYydZvrjogUZuxv6E2cjADqneS&quot;&gt;&lt;div class=&quot;old-record-id-FmYydZvrjogUZuxv6E2cjADqneS&quot;&gt;&lt;div class=&quot;old-record-id-FmYydZvrjogUZuxv6E2cjADqneS&quot;&gt;&lt;div class=&quot;old-record-id-FmYydZvrjogUZuxv6E2cjADqneS&quot;&gt;&lt;div class=&quot;old-record-id-FmYydZvrjogUZuxv6E2cjADqneS&quot;&gt;&lt;div class=&quot;old-record-id-FmYydZvrjogUZuxv6E2cjADqneS&quot;&gt;&lt;div class=&quot;old-record-id-FmYydZvrjogUZuxv6E2cjADqneS&quot;&gt;&lt;div class=&quot;old-record-id-FmYydZvrjogUZuxv6E2cjADqneS&quot;&gt;&lt;div class=&quot;old-record-id-FmYydZvrjogUZuxv6E2cjADqneS&quot;&gt;&lt;div class=&quot;old-record-id-FmYydZvrjogUZuxv6E2cjADqneS&quot;&gt;&lt;div class=&quot;old-record-id-FmYydZvrjogUZuxv6E2cjADqneS&quot;&gt;&lt;div class=&quot;old-record-id-FmYydZvrjogUZuxv6E2cjADqneS&quot;&gt;&lt;div class=&quot;old-record-id-FmYydZvrjogUZuxv6E2cjADqneS&quot;&gt;&lt;div class=&quot;old-record-id-FmYydZvrjogUZuxv6E2cjADqneS&quot;&gt;&lt;div class=&quot;old-record-id-FmYydZvrjogUZuxv6E2cjADqneS&quot;&gt;&lt;div class=&quot;old-record-id-FmYydZvrjogUZuxv6E2cjADqneS&quot;&gt;CREATE TABLE `couponset_activity_rel` (&lt;/div&gt;&lt;div class=&quot;old-record-id-FmYydZvrjogUZuxv6E2cjADqneS&quot;&gt;&amp;nbsp; `id` int(20) unsigned NOT NULL AUTO_INCREMENT COMMENT &#39;主键&#39;,&lt;/div&gt;&lt;div class=&quot;old-record-id-FmYydZvrjogUZuxv6E2cjADqneS&quot;&gt;&amp;nbsp; `status` int(4) unsigned NOT NULL DEFAULT &#39;0&#39; COMMENT &#39;状态 0有效,1失效&#39;,&lt;/div&gt;&lt;div class=&quot;old-record-id-FmYydZvrjogUZuxv6E2cjADqneS&quot;&gt;&amp;nbsp; `remark` varchar(2000) CHARACTER SET utf8mb4 DEFAULT NULL COMMENT &#39;备注信息&#39;,&lt;/div&gt;&lt;div class=&quot;old-record-id-FmYydZvrjogUZuxv6E2cjADqneS&quot;&gt;&amp;nbsp; `creator_id` int(20) DEFAULT NULL COMMENT &#39;创建人ID&#39;,&lt;/div&gt;&lt;div class=&quot;old-record-id-FmYydZvrjogUZuxv6E2cjADqneS&quot;&gt;&amp;nbsp; `create_time` datetime DEFAULT NULL COMMENT &#39;创建时间&#39;,&lt;/div&gt;&lt;div class=&quot;old-record-id-FmYydZvrjogUZuxv6E2cjADqneS&quot;&gt;&amp;nbsp; `modify_time` datetime DEFAULT NULL ON UPDATE CURRENT_TIMESTAMP COMMENT &#39;最后修改时间&#39;,&lt;/div&gt;&lt;div class=&quot;old-record-id-FmYydZvrjogUZuxv6E2cjADqneS&quot;&gt;&amp;nbsp; `modifier_id` int(20) DEFAULT NULL COMMENT &#39;最后修改人&#39;,&lt;/div&gt;&lt;div class=&quot;old-record-id-FmYydZvrjogUZuxv6E2cjADqneS&quot;&gt;&amp;nbsp; `deleted` int(4) unsigned NOT NULL DEFAULT &#39;0&#39; COMMENT &#39;删除（0：未删除，1：已删除）&#39;,&lt;/div&gt;&lt;div class=&quot;old-record-id-FmYydZvrjogUZuxv6E2cjADqneS&quot;&gt;&amp;nbsp; `couponset_activity_id` int(20) DEFAULT NULL COMMENT &#39;套券活动ID&#39;,&lt;/div&gt;&lt;div class=&quot;old-record-id-FmYydZvrjogUZuxv6E2cjADqneS&quot;&gt;&amp;nbsp; `activity_id` int(20) DEFAULT NULL COMMENT &#39;活动ID&#39;,&lt;/div&gt;&lt;div class=&quot;old-record-id-FmYydZvrjogUZuxv6E2cjADqneS&quot;&gt;&amp;nbsp; `send_coupon_id` int(20) DEFAULT NULL COMMENT &#39;发券人ID&#39;,&lt;/div&gt;&lt;div class=&quot;old-record-id-FmYydZvrjogUZuxv6E2cjADqneS&quot;&gt;&amp;nbsp; `send_coupon_amt` decimal(20,2) DEFAULT NULL COMMENT &#39;券面值&#39;,&lt;/div&gt;&lt;div class=&quot;old-record-id-FmYydZvrjogUZuxv6E2cjADqneS&quot;&gt;&amp;nbsp; `coupon_code` varchar(200) DEFAULT NULL COMMENT &#39;券号&#39;,&lt;/div&gt;&lt;div class=&quot;old-record-id-FmYydZvrjogUZuxv6E2cjADqneS&quot;&gt;&amp;nbsp; `mobile` varchar(30) DEFAULT NULL COMMENT &#39;顾客手机号码&#39;,&lt;/div&gt;&lt;div class=&quot;old-record-id-FmYydZvrjogUZuxv6E2cjADqneS&quot;&gt;&amp;nbsp; PRIMARY KEY (`id`)&lt;/div&gt;&lt;div class=&quot;old-record-id-FmYydZvrjogUZuxv6E2cjADqneS&quot;&gt;) ENGINE=InnoDB AUTO_INCREMENT=96 DEFAULT CHARSET=utf8 ROW_FORMAT=DYNAMIC;&lt;/div&gt;&lt;/div&gt;&lt;/div&gt;&lt;/div&gt;&lt;/div&gt;&lt;/div&gt;&lt;/div&gt;&lt;/div&gt;&lt;/div&gt;&lt;/div&gt;&lt;/div&gt;&lt;/div&gt;&lt;/div&gt;&lt;/div&gt;&lt;/div&gt;&lt;/div&gt;&lt;/div&gt;&lt;/div&gt;&lt;/div&gt;&lt;/div&gt;&lt;/div&gt;&lt;/div&gt;&lt;/div&gt;&lt;/div&gt;&lt;/div&gt;" style="shape=partialRectangle;connectable=0;fillColor=default;top=0;left=0;bottom=0;right=0;align=left;spacingLeft=6;overflow=hidden;whiteSpace=wrap;html=1;" vertex="1" parent="qw3Gt2nW3UvpiBgJ2Ltj-91">
          <mxGeometry x="30" width="440" height="240" as="geometry">
            <mxRectangle width="440" height="240" as="alternateBounds" />
          </mxGeometry>
        </mxCell>
        <mxCell id="qw3Gt2nW3UvpiBgJ2Ltj-95" value="&lt;span style=&quot;background-color: rgb(213, 232, 212);&quot;&gt;promotion_card（促销会员卡信息表）&lt;/span&gt;" style="shape=table;startSize=30;container=1;collapsible=1;childLayout=tableLayout;fixedRows=1;rowLines=0;fontStyle=1;align=center;resizeLast=1;html=1;labelBackgroundColor=default;fillColor=#d5e8d4;strokeColor=#82b366;" vertex="1" parent="1">
          <mxGeometry x="-5250" y="870" width="470" height="190" as="geometry" />
        </mxCell>
        <mxCell id="qw3Gt2nW3UvpiBgJ2Ltj-96" value="" style="shape=tableRow;horizontal=0;startSize=0;swimlaneHead=0;swimlaneBody=0;fillColor=none;collapsible=0;dropTarget=0;points=[[0,0.5],[1,0.5]];portConstraint=eastwest;top=0;left=0;right=0;bottom=1;" vertex="1" parent="qw3Gt2nW3UvpiBgJ2Ltj-95">
          <mxGeometry y="30" width="470" height="30" as="geometry" />
        </mxCell>
        <mxCell id="qw3Gt2nW3UvpiBgJ2Ltj-97" value="PK" style="shape=partialRectangle;connectable=0;fillColor=none;top=0;left=0;bottom=0;right=0;fontStyle=1;overflow=hidden;whiteSpace=wrap;html=1;" vertex="1" parent="qw3Gt2nW3UvpiBgJ2Ltj-96">
          <mxGeometry width="30" height="30" as="geometry">
            <mxRectangle width="30" height="30" as="alternateBounds" />
          </mxGeometry>
        </mxCell>
        <mxCell id="qw3Gt2nW3UvpiBgJ2Ltj-98" value="`ID` bigint(20) NOT NULL AUTO_INCREMENT COMMENT &#39;自增ID&#39;" style="shape=partialRectangle;connectable=0;fillColor=none;top=0;left=0;bottom=0;right=0;align=left;spacingLeft=6;fontStyle=5;overflow=hidden;whiteSpace=wrap;html=1;" vertex="1" parent="qw3Gt2nW3UvpiBgJ2Ltj-96">
          <mxGeometry x="30" width="440" height="30" as="geometry">
            <mxRectangle width="440" height="30" as="alternateBounds" />
          </mxGeometry>
        </mxCell>
        <mxCell id="qw3Gt2nW3UvpiBgJ2Ltj-99" value="" style="shape=tableRow;horizontal=0;startSize=0;swimlaneHead=0;swimlaneBody=0;fillColor=none;collapsible=0;dropTarget=0;points=[[0,0.5],[1,0.5]];portConstraint=eastwest;top=0;left=0;right=0;bottom=0;" vertex="1" parent="qw3Gt2nW3UvpiBgJ2Ltj-95">
          <mxGeometry y="60" width="470" height="130" as="geometry" />
        </mxCell>
        <mxCell id="qw3Gt2nW3UvpiBgJ2Ltj-100" value="" style="shape=partialRectangle;connectable=0;fillColor=none;top=0;left=0;bottom=0;right=0;editable=1;overflow=hidden;whiteSpace=wrap;html=1;" vertex="1" parent="qw3Gt2nW3UvpiBgJ2Ltj-99">
          <mxGeometry width="30" height="130" as="geometry">
            <mxRectangle width="30" height="130" as="alternateBounds" />
          </mxGeometry>
        </mxCell>
        <mxCell id="qw3Gt2nW3UvpiBgJ2Ltj-101" value="&lt;div style=&quot;line-height: 130%;&quot;&gt;&lt;div style=&quot;line-height: 130%;&quot;&gt;&lt;div style=&quot;line-height: 130%;&quot;&gt;&lt;div style=&quot;line-height: 130%;&quot;&gt;&lt;div style=&quot;line-height: 130%;&quot;&gt;&lt;div style=&quot;line-height: 130%;&quot;&gt;&lt;div style=&quot;line-height: 130%;&quot;&gt;&lt;div data-docx-has-block-data=&quot;false&quot; data-page-id=&quot;YLrPdt7Foo4dSDxoeuHca6s7nCh&quot;&gt;&lt;div class=&quot;old-record-id-FmYydZvrjogUZuxv6E2cjADqneS&quot; style=&quot;&quot;&gt;&lt;div class=&quot;old-record-id-FmYydZvrjogUZuxv6E2cjADqneS&quot;&gt;&lt;div class=&quot;old-record-id-FmYydZvrjogUZuxv6E2cjADqneS&quot;&gt;&lt;div class=&quot;old-record-id-FmYydZvrjogUZuxv6E2cjADqneS&quot;&gt;&lt;div class=&quot;old-record-id-FmYydZvrjogUZuxv6E2cjADqneS&quot;&gt;&lt;div class=&quot;old-record-id-FmYydZvrjogUZuxv6E2cjADqneS&quot;&gt;&lt;div class=&quot;old-record-id-FmYydZvrjogUZuxv6E2cjADqneS&quot;&gt;&lt;div class=&quot;old-record-id-FmYydZvrjogUZuxv6E2cjADqneS&quot;&gt;CREATE TABLE `promotion_card` (&lt;/div&gt;&lt;div class=&quot;old-record-id-FmYydZvrjogUZuxv6E2cjADqneS&quot;&gt;&amp;nbsp; `id` int(20) NOT NULL AUTO_INCREMENT COMMENT &#39;主键&#39;,&lt;/div&gt;&lt;div class=&quot;old-record-id-FmYydZvrjogUZuxv6E2cjADqneS&quot;&gt;&amp;nbsp; `activity_id` int(20) DEFAULT NULL COMMENT &#39;活动ID&#39;,&lt;/div&gt;&lt;div class=&quot;old-record-id-FmYydZvrjogUZuxv6E2cjADqneS&quot;&gt;&amp;nbsp; `card_id` int(20) DEFAULT NULL COMMENT &#39;会员卡编码&#39;,&lt;/div&gt;&lt;div class=&quot;old-record-id-FmYydZvrjogUZuxv6E2cjADqneS&quot;&gt;&amp;nbsp; `card_name` varchar(200) DEFAULT NULL COMMENT &#39;会员卡名称&#39;,&lt;/div&gt;&lt;div class=&quot;old-record-id-FmYydZvrjogUZuxv6E2cjADqneS&quot;&gt;&amp;nbsp; `status` int(4) DEFAULT &#39;1&#39; COMMENT &#39;状态 1有效 0&#39;,&lt;/div&gt;&lt;div class=&quot;old-record-id-FmYydZvrjogUZuxv6E2cjADqneS&quot;&gt;&amp;nbsp; `remark` varchar(2000) DEFAULT NULL,&lt;/div&gt;&lt;div class=&quot;old-record-id-FmYydZvrjogUZuxv6E2cjADqneS&quot;&gt;&amp;nbsp; `creator_id` int(20) DEFAULT NULL COMMENT &#39;创建人ID&#39;,&lt;/div&gt;&lt;div class=&quot;old-record-id-FmYydZvrjogUZuxv6E2cjADqneS&quot;&gt;&amp;nbsp; `create_time` datetime DEFAULT NULL COMMENT &#39;创建时间&#39;,&lt;/div&gt;&lt;div class=&quot;old-record-id-FmYydZvrjogUZuxv6E2cjADqneS&quot;&gt;&amp;nbsp; `modify_time` datetime DEFAULT NULL ON UPDATE CURRENT_TIMESTAMP COMMENT &#39;最后修改时间&#39;,&lt;/div&gt;&lt;div class=&quot;old-record-id-FmYydZvrjogUZuxv6E2cjADqneS&quot;&gt;&amp;nbsp; `modifier_id` int(20) DEFAULT NULL COMMENT &#39;最后修改人&#39;,&lt;/div&gt;&lt;div class=&quot;old-record-id-FmYydZvrjogUZuxv6E2cjADqneS&quot;&gt;&amp;nbsp; `deleted` int(4) DEFAULT &#39;0&#39; COMMENT &#39;删除&#39;,&lt;/div&gt;&lt;div class=&quot;old-record-id-FmYydZvrjogUZuxv6E2cjADqneS&quot;&gt;&amp;nbsp; `discount` decimal(11,2) DEFAULT NULL COMMENT &#39;会员活动折扣率&#39;,&lt;/div&gt;&lt;div class=&quot;old-record-id-FmYydZvrjogUZuxv6E2cjADqneS&quot;&gt;&amp;nbsp; PRIMARY KEY (`id`),&lt;/div&gt;&lt;div class=&quot;old-record-id-FmYydZvrjogUZuxv6E2cjADqneS&quot;&gt;&amp;nbsp; KEY `index_card_activity_id` (`activity_id`)&lt;/div&gt;&lt;div class=&quot;old-record-id-FmYydZvrjogUZuxv6E2cjADqneS&quot;&gt;) ENGINE=InnoDB AUTO_INCREMENT=59597 DEFAULT CHARSET=utf8mb4 COMMENT=&#39;促销会员卡信息&#39;;&lt;/div&gt;&lt;/div&gt;&lt;/div&gt;&lt;/div&gt;&lt;/div&gt;&lt;/div&gt;&lt;/div&gt;&lt;/div&gt;&lt;/div&gt;&lt;/div&gt;&lt;/div&gt;&lt;/div&gt;&lt;/div&gt;&lt;/div&gt;&lt;/div&gt;&lt;/div&gt;" style="shape=partialRectangle;connectable=0;fillColor=default;top=0;left=0;bottom=0;right=0;align=left;spacingLeft=6;overflow=hidden;whiteSpace=wrap;html=1;" vertex="1" parent="qw3Gt2nW3UvpiBgJ2Ltj-99">
          <mxGeometry x="30" width="440" height="130" as="geometry">
            <mxRectangle width="440" height="130" as="alternateBounds" />
          </mxGeometry>
        </mxCell>
      </root>
    </mxGraphModel>
  </diagram>
</mxfile>
